<svg width="310" height="213" viewBox="0 0 310 213" fill="none" xmlns="http://www.w3.org/2000/svg">
<g filter="url(#filter0_d_529_2193)">
<path d="M24 32C24 25.3726 29.3726 20 36 20H274C280.627 20 286 25.3726 286 32V169.21C286 175.837 280.627 181.21 274 181.21H36C29.3726 181.21 24 175.837 24 169.21V32Z" fill="url(#paint0_linear_529_2193)"/>
</g>
<mask id="mask0_529_2193" style="mask-type:alpha" maskUnits="userSpaceOnUse" x="24" y="20" width="262" height="162">
<path d="M24 32C24 25.3726 29.3726 20 36 20H274C280.627 20 286 25.3726 286 32V169.21C286 175.837 280.627 181.21 274 181.21H36C29.3726 181.21 24 175.837 24 169.21V32Z" fill="url(#paint1_linear_529_2193)"/>
</mask>
<g mask="url(#mask0_529_2193)">
<path d="M28.2601 109.118C-25.2901 149.466 12.249 205.838 37.7123 228.98C116.445 299.694 125.672 217.296 239.382 277.931C353.092 338.566 330.296 295.895 474.298 91.0947C618.3 -113.705 429.496 -111.316 406.371 -71.1738C383.246 -31.0316 341.522 -49.7768 289.692 -111.6C237.863 -173.424 107.568 -64.3993 130.168 1.30691C152.768 67.0131 95.198 58.6816 28.2601 109.118Z" stroke="white" stroke-opacity="0.13"/>
<path d="M51.9531 106.899C3.70312 143.294 37.5361 194.158 60.4838 215.041C131.438 278.851 139.743 204.513 242.215 259.235C344.686 313.956 324.14 275.455 453.878 90.7047C583.616 -94.0457 413.484 -91.9179 392.651 -55.7048C371.817 -19.4917 334.217 -36.4099 287.507 -92.1953C240.796 -147.981 123.398 -49.6371 143.771 9.64676C164.144 68.9306 112.266 61.4054 51.9531 106.899Z" stroke="white" stroke-opacity="0.13"/>
<path d="M70.3309 105.295C26.1978 138.548 57.1354 185.007 78.1208 204.079C143.008 262.357 150.612 194.45 244.325 244.421C338.039 294.393 319.251 259.226 437.93 90.4415C556.608 -78.3431 401.007 -76.3739 381.949 -43.291C362.89 -10.208 328.503 -25.6568 285.789 -76.6084C243.074 -127.56 135.692 -37.7078 154.318 16.4435C172.944 70.5948 125.497 63.7285 70.3309 105.295Z" stroke="white" stroke-opacity="0.13"/>
<path d="M87.6768 103.127C47.4493 133.458 75.654 175.844 94.7849 193.245C153.937 246.417 160.864 184.468 246.293 230.065C331.721 275.661 314.593 243.578 422.763 89.6117C530.933 -64.3543 389.094 -62.5727 371.723 -32.394C354.353 -2.21518 323.006 -16.3119 284.066 -62.7977C245.125 -109.283 147.247 -27.3243 164.229 22.0782C181.212 71.4807 137.961 65.2122 87.6768 103.127Z" stroke="white" stroke-opacity="0.13"/>
<path d="M106.536 101.457C70.5405 128.632 95.7861 166.62 112.908 182.217C165.85 229.876 172.041 174.362 248.497 215.238C324.952 256.113 309.62 227.359 406.402 89.402C503.183 -48.5545 376.252 -46.9817 360.711 -19.9403C345.17 7.10109 317.117 -5.53679 282.263 -47.2009C247.409 -88.865 159.829 -15.4347 175.032 28.8395C190.236 73.1138 151.531 67.4891 106.536 101.457Z" stroke="white" stroke-opacity="0.13"/>
<path d="M126.365 99.7227C94.812 123.52 116.936 156.777 131.942 170.431C178.341 212.152 183.773 163.546 250.781 199.325C317.79 235.103 304.354 209.929 389.196 89.1295C474.038 -31.6705 362.783 -30.2773 349.159 -6.59927C335.535 17.0788 310.947 6.01728 280.402 -30.4573C249.857 -66.9318 173.086 -2.62885 186.408 36.1335C199.73 74.8958 165.805 69.9761 126.365 99.7227Z" stroke="white" stroke-opacity="0.13"/>
</g>
<defs>
<filter id="filter0_d_529_2193" x="2" y="7" width="306" height="205.21" filterUnits="userSpaceOnUse" color-interpolation-filters="sRGB">
<feFlood flood-opacity="0" result="BackgroundImageFix"/>
<feColorMatrix in="SourceAlpha" type="matrix" values="0 0 0 0 0 0 0 0 0 0 0 0 0 0 0 0 0 0 127 0" result="hardAlpha"/>
<feOffset dy="9"/>
<feGaussianBlur stdDeviation="11"/>
<feColorMatrix type="matrix" values="0 0 0 0 0 0 0 0 0 0 0 0 0 0 0 0 0 0 0.12 0"/>
<feBlend mode="normal" in2="BackgroundImageFix" result="effect1_dropShadow_529_2193"/>
<feBlend mode="normal" in="SourceGraphic" in2="effect1_dropShadow_529_2193" result="shape"/>
</filter>
<linearGradient id="paint0_linear_529_2193" x1="286" y1="13.8361" x2="10.054" y2="106.266" gradientUnits="userSpaceOnUse">
<stop offset="0.0001" stop-color="#7883FF"/>
<stop offset="1" stop-color="#4756FF"/>
</linearGradient>
<linearGradient id="paint1_linear_529_2193" x1="275.323" y1="20" x2="10.8556" y2="109.648" gradientUnits="userSpaceOnUse">
<stop stop-color="white"/>
<stop offset="0.0001" stop-color="#F8F8FF"/>
<stop offset="1" stop-color="#F8F8FF"/>
</linearGradient>
</defs>
</svg>
