<svg width="300" height="48" viewBox="0 0 300 48" fill="none" xmlns="http://www.w3.org/2000/svg">
<rect width="300" height="48" rx="12" fill="#4756FF"/>
<path d="M95.0478 29.1875C92.8603 29.1875 91.3603 28.2422 90.9228 26.9297C90.8681 26.7578 90.8291 26.5703 90.8291 26.3828C90.8291 25.875 91.1416 25.5469 91.6181 25.5469C92.0166 25.5469 92.2744 25.7266 92.4463 26.1484C92.7978 27.2031 93.8213 27.6953 95.1259 27.6953C96.5556 27.6953 97.5791 26.9609 97.5791 25.9531C97.5791 25.0781 96.9853 24.5312 95.4775 24.2031L94.2431 23.9453C91.9931 23.4688 90.9697 22.4219 90.9697 20.7969C90.9697 18.8672 92.665 17.5391 95.0634 17.5391C97.0088 17.5391 98.54 18.4531 98.9775 19.9609C99.0166 20.0703 99.04 20.2031 99.04 20.3672C99.04 20.8203 98.7197 21.1172 98.2666 21.1172C97.8447 21.1172 97.5869 20.9219 97.4072 20.5156C97.0244 19.4766 96.165 19.0312 95.04 19.0312C93.7197 19.0312 92.7431 19.6719 92.7431 20.7031C92.7431 21.5234 93.3291 22.0703 94.79 22.3828L96.0166 22.6406C98.3838 23.1406 99.3525 24.0859 99.3525 25.7266C99.3525 27.8516 97.6806 29.1875 95.0478 29.1875ZM101.378 19.5391C100.839 19.5391 100.402 19.1016 100.402 18.5703C100.402 18.0312 100.839 17.6094 101.378 17.6094C101.925 17.6094 102.363 18.0312 102.363 18.5703C102.363 19.1016 101.925 19.5391 101.378 19.5391ZM101.378 29.1484C100.87 29.1484 100.534 28.7969 100.534 28.2578V21.5312C100.534 20.9844 100.87 20.6328 101.378 20.6328C101.886 20.6328 102.222 20.9844 102.222 21.5312V28.2578C102.222 28.7969 101.886 29.1484 101.378 29.1484ZM107.154 32.0938C105.662 32.0781 104.482 31.5 103.919 30.6094C103.81 30.4219 103.763 30.25 103.763 30.0547C103.763 29.6641 104.052 29.3828 104.482 29.3828C104.74 29.3828 104.904 29.4688 105.13 29.6953C105.802 30.3984 106.38 30.7031 107.185 30.7188C108.56 30.7344 109.396 29.9531 109.396 28.8047V27.5H109.357C108.896 28.3906 107.927 28.9766 106.755 28.9766C104.685 28.9766 103.341 27.3594 103.341 24.8203C103.341 22.25 104.669 20.6484 106.794 20.6484C107.958 20.6484 108.865 21.2344 109.365 22.1641H109.396V21.5C109.396 20.9531 109.763 20.6328 110.248 20.6328C110.732 20.6328 111.091 20.9531 111.091 21.5V28.7734C111.091 30.8047 109.599 32.1172 107.154 32.0938ZM107.208 27.6016C108.529 27.6016 109.404 26.5234 109.404 24.8359C109.404 23.1484 108.529 22.0391 107.208 22.0391C105.912 22.0391 105.068 23.1172 105.068 24.8281C105.068 26.5469 105.912 27.6016 107.208 27.6016ZM113.359 29.1484C112.859 29.1484 112.515 28.8125 112.515 28.2578V21.4844C112.515 20.9688 112.828 20.6328 113.32 20.6328C113.804 20.6328 114.14 20.9688 114.14 21.4922V22.1406H114.179C114.625 21.2031 115.484 20.6406 116.75 20.6406C118.562 20.6406 119.601 21.7969 119.601 23.6797V28.2578C119.601 28.8125 119.25 29.1484 118.75 29.1484C118.257 29.1484 117.906 28.8125 117.906 28.2578V24.0078C117.906 22.7734 117.328 22.0938 116.156 22.0938C114.968 22.0938 114.203 22.9375 114.203 24.2109V28.2578C114.203 28.8125 113.851 29.1484 113.359 29.1484ZM126.848 29.1484C125.059 29.1484 123.965 27.9844 123.965 26.1016V21.5312C123.965 20.9688 124.309 20.6328 124.809 20.6328C125.301 20.6328 125.653 20.9688 125.653 21.5312V25.7734C125.653 27.0234 126.246 27.6953 127.41 27.6953C128.629 27.6953 129.363 26.8516 129.363 25.5703V21.5312C129.363 20.9688 129.715 20.6328 130.207 20.6328C130.707 20.6328 131.051 20.9688 131.051 21.5312V28.2891C131.051 28.8125 130.731 29.1484 130.246 29.1484C129.762 29.1484 129.434 28.8125 129.434 28.2969V27.6094H129.395C128.942 28.5938 128.106 29.1484 126.848 29.1484ZM133.327 31.9141C132.827 31.9141 132.483 31.5703 132.483 31.0156V21.5C132.483 20.9609 132.819 20.6328 133.295 20.6328C133.772 20.6328 134.116 20.9609 134.116 21.5V22.1953H134.147C134.631 21.25 135.577 20.6484 136.764 20.6484C138.85 20.6484 140.225 22.2891 140.225 24.8906C140.225 27.4922 138.858 29.1406 136.795 29.1406C135.616 29.1406 134.678 28.5625 134.209 27.6484H134.17V31.0156C134.17 31.5703 133.819 31.9141 133.327 31.9141ZM136.319 27.7109C137.655 27.7109 138.491 26.6172 138.491 24.8906C138.491 23.1719 137.655 22.0703 136.319 22.0703C135.03 22.0703 134.163 23.1953 134.163 24.8906C134.163 26.6016 135.022 27.7109 136.319 27.7109ZM146.768 29.1484C146.214 29.1484 145.901 28.8906 145.729 28.2969L143.854 21.8359C143.792 21.6484 143.768 21.5 143.768 21.3594C143.768 20.9219 144.097 20.6328 144.589 20.6328C145.011 20.6328 145.261 20.8594 145.37 21.3359L146.847 27.25H146.878L148.44 21.3984C148.558 20.8984 148.893 20.6328 149.409 20.6328C149.917 20.6328 150.245 20.8984 150.362 21.3984L151.933 27.25H151.972L153.448 21.3359C153.558 20.8594 153.8 20.6328 154.222 20.6328C154.714 20.6328 155.034 20.9219 155.034 21.3594C155.034 21.5 155.011 21.6406 154.956 21.8359L153.081 28.2969C152.917 28.875 152.573 29.1484 152.018 29.1484C151.433 29.1484 151.104 28.8984 150.948 28.2969L149.409 22.8438H149.37L147.847 28.2969C147.69 28.875 147.339 29.1484 146.768 29.1484ZM156.833 19.5391C156.294 19.5391 155.857 19.1016 155.857 18.5703C155.857 18.0312 156.294 17.6094 156.833 17.6094C157.38 17.6094 157.817 18.0312 157.817 18.5703C157.817 19.1016 157.38 19.5391 156.833 19.5391ZM156.833 29.1484C156.325 29.1484 155.989 28.7969 155.989 28.2578V21.5312C155.989 20.9844 156.325 20.6328 156.833 20.6328C157.341 20.6328 157.677 20.9844 157.677 21.5312V28.2578C157.677 28.7969 157.341 29.1484 156.833 29.1484ZM159.656 27.0312V22.1172H159.062C158.624 22.1172 158.359 21.8672 158.359 21.4531C158.359 21.0312 158.624 20.7812 159.062 20.7812H159.656V19.5625C159.656 19.0234 159.992 18.6641 160.507 18.6641C161.015 18.6641 161.351 19.0234 161.351 19.5625V20.7812H162.312C162.749 20.7812 163.015 21.0391 163.015 21.4531C163.015 21.8672 162.749 22.1172 162.312 22.1172H161.351V26.6562C161.351 27.3125 161.577 27.6094 162.187 27.6562L162.32 27.6641C162.804 27.7109 163.046 27.9062 163.046 28.3047C163.046 28.8125 162.656 29.0703 161.827 29.0703H161.742C160.359 29.0703 159.656 28.3906 159.656 27.0312ZM164.97 29.1484C164.478 29.1484 164.127 28.8125 164.127 28.2578V18.4531C164.127 17.9219 164.447 17.5781 164.963 17.5781C165.486 17.5781 165.798 17.9219 165.798 18.4531V22.1562H165.838C166.291 21.1953 167.189 20.6406 168.439 20.6406C170.244 20.6406 171.322 21.8438 171.322 23.7031V28.2578C171.322 28.8125 170.97 29.1484 170.47 29.1484C169.978 29.1484 169.627 28.8125 169.627 28.2578V24.0312C169.627 22.8203 169.017 22.0938 167.83 22.0938C166.58 22.0938 165.814 22.9531 165.814 24.25V28.2578C165.814 28.8125 165.463 29.1484 164.97 29.1484ZM179.287 29.1562C176.811 29.1562 175.357 27.5859 175.357 24.9297C175.357 22.3203 176.842 20.6328 179.17 20.6328C181.357 20.6328 182.865 22.2109 182.865 24.4531C182.865 25 182.553 25.3125 182.029 25.3125H177.061V25.3516C177.061 26.8516 177.904 27.7891 179.248 27.7891C180.17 27.7891 180.748 27.4688 181.373 26.6172C181.553 26.4062 181.725 26.3203 181.967 26.3203C182.373 26.3203 182.67 26.5859 182.67 27.0078C182.67 27.1406 182.623 27.2969 182.553 27.4609C182.014 28.5391 180.818 29.1562 179.287 29.1562ZM177.068 24.1328H181.178C181.139 22.8438 180.334 21.9922 179.162 21.9922C177.998 21.9922 177.154 22.8516 177.068 24.1328ZM184.782 29.1484C184.274 29.1484 183.938 28.7969 183.938 28.2578V21.4922C183.938 20.9609 184.266 20.6328 184.743 20.6328C185.211 20.6328 185.547 20.9531 185.547 21.4922V22.1641H185.586C185.953 21.25 186.813 20.6406 187.922 20.6406C189.063 20.6406 189.891 21.2266 190.219 22.25H190.258C190.68 21.25 191.649 20.6406 192.821 20.6406C194.446 20.6406 195.508 21.7188 195.508 23.3516V28.2578C195.508 28.7969 195.164 29.1484 194.657 29.1484C194.149 29.1484 193.813 28.7969 193.813 28.2578V23.7578C193.813 22.6953 193.243 22.0859 192.243 22.0859C191.243 22.0859 190.547 22.8281 190.547 23.8672V28.2578C190.547 28.7969 190.227 29.1484 189.719 29.1484C189.211 29.1484 188.891 28.7969 188.891 28.2578V23.6328C188.891 22.6875 188.289 22.0859 187.336 22.0859C186.336 22.0859 185.625 22.8672 185.625 23.9219V28.2578C185.625 28.7969 185.289 29.1484 184.782 29.1484ZM199.307 29.1406C197.698 29.1406 196.565 28.1406 196.565 26.6641C196.565 25.2266 197.674 24.3438 199.62 24.2344L201.878 24.1016V23.4688C201.878 22.5547 201.26 22.0078 200.229 22.0078C199.417 22.0078 198.878 22.2969 198.409 23.0469C198.237 23.2969 198.018 23.4062 197.721 23.4062C197.299 23.4062 196.995 23.125 196.995 22.7031C196.995 22.5312 197.042 22.3438 197.143 22.1562C197.573 21.2266 198.815 20.6328 200.292 20.6328C202.284 20.6328 203.557 21.6875 203.557 23.3359V28.2969C203.557 28.8281 203.221 29.1484 202.745 29.1484C202.276 29.1484 201.956 28.8438 201.94 28.3438V27.6484H201.901C201.424 28.5625 200.378 29.1406 199.307 29.1406ZM199.768 27.8047C200.948 27.8047 201.878 26.9922 201.878 25.9219V25.2734L199.846 25.3984C198.838 25.4688 198.268 25.9141 198.268 26.6172C198.268 27.3359 198.87 27.8047 199.768 27.8047ZM205.856 19.5391C205.317 19.5391 204.88 19.1016 204.88 18.5703C204.88 18.0312 205.317 17.6094 205.856 17.6094C206.403 17.6094 206.841 18.0312 206.841 18.5703C206.841 19.1016 206.403 19.5391 205.856 19.5391ZM205.856 29.1484C205.348 29.1484 205.013 28.7969 205.013 28.2578V21.5312C205.013 20.9844 205.348 20.6328 205.856 20.6328C206.364 20.6328 206.7 20.9844 206.7 21.5312V28.2578C206.7 28.7969 206.364 29.1484 205.856 29.1484ZM209.093 29.1484C208.601 29.1484 208.249 28.8125 208.249 28.2578V18.4688C208.249 17.9141 208.601 17.5781 209.093 17.5781C209.585 17.5781 209.937 17.9141 209.937 18.4688V28.2578C209.937 28.8125 209.585 29.1484 209.093 29.1484Z" fill="white"/>
</svg>
