<svg width="370" height="118" viewBox="0 0 370 118" fill="none" xmlns="http://www.w3.org/2000/svg">
<g filter="url(#filter0_d_929_9236)">
<path d="M35 42C35 35.3726 40.3726 30 47 30H323C329.627 30 335 35.3726 335 42V66C335 72.6274 329.627 78 323 78H47C40.3726 78 35 72.6274 35 66V42Z" fill="black" shape-rendering="crispEdges"/>
<path d="M47 30.5H323C329.351 30.5 334.5 35.6487 334.5 42V66C334.5 72.3513 329.351 77.5 323 77.5H47C40.6487 77.5 35.5 72.3513 35.5 66V42C35.5 35.6487 40.6487 30.5 47 30.5Z" stroke="black" shape-rendering="crispEdges"/>
<path d="M139.493 52.7536H137.634C137.58 52.4486 137.483 52.1785 137.34 51.9432C137.198 51.7045 137.02 51.5024 136.808 51.3366C136.596 51.1709 136.354 51.0466 136.082 50.9638C135.814 50.8776 135.524 50.8345 135.212 50.8345C134.659 50.8345 134.168 50.9737 133.741 51.2521C133.313 51.5272 132.978 51.9316 132.737 52.4652C132.495 52.9955 132.374 53.6435 132.374 54.4091C132.374 55.188 132.495 55.8442 132.737 56.3778C132.982 56.9081 133.317 57.3092 133.741 57.581C134.168 57.8494 134.657 57.9837 135.207 57.9837C135.512 57.9837 135.797 57.9439 136.062 57.8643C136.331 57.7815 136.571 57.6605 136.783 57.5014C136.999 57.3423 137.179 57.1468 137.325 56.9148C137.474 56.6828 137.577 56.4176 137.634 56.1193L139.493 56.1293C139.423 56.6132 139.272 57.0672 139.04 57.4915C138.812 57.9157 138.512 58.2902 138.141 58.6151C137.769 58.9366 137.335 59.1884 136.838 59.3707C136.341 59.5497 135.789 59.6392 135.183 59.6392C134.288 59.6392 133.489 59.4321 132.786 59.0178C132.084 58.6035 131.53 58.0052 131.126 57.223C130.721 56.4408 130.519 55.5028 130.519 54.4091C130.519 53.312 130.723 52.3741 131.131 51.5952C131.538 50.813 132.094 50.2147 132.796 49.8004C133.499 49.3861 134.294 49.179 135.183 49.179C135.749 49.179 136.276 49.2585 136.763 49.4176C137.251 49.5767 137.685 49.8104 138.066 50.1186C138.447 50.4235 138.76 50.7981 139.006 51.2422C139.254 51.683 139.417 52.1868 139.493 52.7536ZM144.433 59.6491C143.688 59.6491 143.041 59.4851 142.494 59.157C141.948 58.8288 141.523 58.3698 141.222 57.7798C140.923 57.1899 140.774 56.5005 140.774 55.7116C140.774 54.9228 140.923 54.2318 141.222 53.6385C141.523 53.0452 141.948 52.5845 142.494 52.2564C143.041 51.9283 143.688 51.7642 144.433 51.7642C145.179 51.7642 145.825 51.9283 146.372 52.2564C146.919 52.5845 147.342 53.0452 147.64 53.6385C147.942 54.2318 148.093 54.9228 148.093 55.7116C148.093 56.5005 147.942 57.1899 147.64 57.7798C147.342 58.3698 146.919 58.8288 146.372 59.157C145.825 59.4851 145.179 59.6491 144.433 59.6491ZM144.443 58.2074C144.848 58.2074 145.186 58.0964 145.458 57.8743C145.729 57.6489 145.932 57.3473 146.064 56.9695C146.2 56.5916 146.268 56.1707 146.268 55.7067C146.268 55.2393 146.2 54.8168 146.064 54.4389C145.932 54.0578 145.729 53.7545 145.458 53.5291C145.186 53.3037 144.848 53.1911 144.443 53.1911C144.029 53.1911 143.684 53.3037 143.409 53.5291C143.137 53.7545 142.934 54.0578 142.798 54.4389C142.665 54.8168 142.599 55.2393 142.599 55.7067C142.599 56.1707 142.665 56.5916 142.798 56.9695C142.934 57.3473 143.137 57.6489 143.409 57.8743C143.684 58.0964 144.029 58.2074 144.443 58.2074ZM151.42 55.0256V59.5H149.62V51.8636H151.34V53.1612H151.43C151.605 52.7337 151.885 52.3939 152.27 52.142C152.658 51.8902 153.137 51.7642 153.707 51.7642C154.234 51.7642 154.693 51.8769 155.084 52.1023C155.478 52.3277 155.783 52.6541 155.999 53.0817C156.217 53.5092 156.325 54.0279 156.322 54.6378V59.5H154.522V54.9162C154.522 54.4058 154.389 54.0064 154.124 53.718C153.862 53.4297 153.5 53.2855 153.036 53.2855C152.721 53.2855 152.441 53.3551 152.195 53.4943C151.953 53.6302 151.763 53.8274 151.624 54.0859C151.488 54.3445 151.42 54.6577 151.42 55.0256ZM161.964 51.8636V53.2557H157.575V51.8636H161.964ZM158.658 50.0341H160.458V57.2031C160.458 57.4451 160.495 57.6307 160.567 57.7599C160.644 57.8859 160.743 57.9721 160.866 58.0185C160.988 58.0649 161.124 58.0881 161.273 58.0881C161.386 58.0881 161.489 58.0798 161.582 58.0632C161.678 58.0466 161.751 58.0317 161.8 58.0185L162.104 59.4254C162.008 59.4586 161.87 59.495 161.691 59.5348C161.515 59.5746 161.3 59.5978 161.045 59.6044C160.594 59.6177 160.188 59.5497 159.827 59.4006C159.465 59.2481 159.179 59.0128 158.967 58.6946C158.758 58.3764 158.655 57.9787 158.658 57.5014V50.0341ZM163.47 59.5V51.8636H165.269V59.5H163.47ZM164.374 50.7798C164.089 50.7798 163.844 50.6854 163.639 50.4964C163.433 50.3042 163.33 50.0739 163.33 49.8054C163.33 49.5336 163.433 49.3033 163.639 49.1143C163.844 48.9221 164.089 48.826 164.374 48.826C164.663 48.826 164.908 48.9221 165.11 49.1143C165.316 49.3033 165.419 49.5336 165.419 49.8054C165.419 50.0739 165.316 50.3042 165.11 50.4964C164.908 50.6854 164.663 50.7798 164.374 50.7798ZM168.92 55.0256V59.5H167.12V51.8636H168.84V53.1612H168.93C169.105 52.7337 169.385 52.3939 169.77 52.142C170.158 51.8902 170.637 51.7642 171.207 51.7642C171.734 51.7642 172.193 51.8769 172.584 52.1023C172.978 52.3277 173.283 52.6541 173.499 53.0817C173.717 53.5092 173.825 54.0279 173.822 54.6378V59.5H172.022V54.9162C172.022 54.4058 171.889 54.0064 171.624 53.718C171.362 53.4297 171 53.2855 170.536 53.2855C170.221 53.2855 169.941 53.3551 169.695 53.4943C169.453 53.6302 169.263 53.8274 169.124 54.0859C168.988 54.3445 168.92 54.6577 168.92 55.0256ZM180.518 56.2884V51.8636H182.318V59.5H180.573V58.1428H180.494C180.321 58.5703 180.038 58.92 179.643 59.1918C179.252 59.4635 178.77 59.5994 178.197 59.5994C177.696 59.5994 177.254 59.4884 176.869 59.2663C176.488 59.041 176.19 58.7145 175.974 58.2869C175.759 57.8561 175.651 57.3357 175.651 56.7259V51.8636H177.451V56.4474C177.451 56.9313 177.584 57.3158 177.849 57.6009C178.114 57.8859 178.462 58.0284 178.893 58.0284C179.158 58.0284 179.415 57.9638 179.663 57.8345C179.912 57.7053 180.116 57.513 180.275 57.2578C180.437 56.9993 180.518 56.6761 180.518 56.2884ZM187.55 59.6491C186.784 59.6491 186.123 59.4901 185.566 59.1719C185.012 58.8504 184.586 58.3963 184.288 57.8097C183.99 57.2197 183.841 56.5253 183.841 55.7266C183.841 54.9411 183.99 54.2517 184.288 53.6584C184.59 53.0618 185.011 52.5978 185.551 52.2663C186.091 51.9316 186.726 51.7642 187.455 51.7642C187.926 51.7642 188.37 51.8404 188.787 51.9929C189.208 52.142 189.58 52.3741 189.901 52.6889C190.226 53.0038 190.481 53.4048 190.667 53.892C190.852 54.3759 190.945 54.9527 190.945 55.6222V56.174H184.686V54.9609H189.22C189.217 54.6162 189.142 54.3097 188.996 54.0412C188.85 53.7694 188.647 53.5556 188.385 53.3999C188.126 53.2441 187.825 53.1662 187.48 53.1662C187.112 53.1662 186.789 53.2557 186.51 53.4347C186.232 53.6103 186.015 53.8423 185.859 54.1307C185.707 54.4157 185.629 54.7289 185.626 55.0703V56.1293C185.626 56.5734 185.707 56.9545 185.869 57.2727C186.032 57.5876 186.259 57.8295 186.55 57.9986C186.842 58.1643 187.183 58.2472 187.574 58.2472C187.836 58.2472 188.073 58.2107 188.285 58.1378C188.497 58.0616 188.681 57.9505 188.837 57.8047C188.993 57.6589 189.111 57.4782 189.19 57.2628L190.871 57.4517C190.765 57.8958 190.562 58.2836 190.264 58.6151C189.969 58.9432 189.591 59.1984 189.131 59.3807C188.67 59.5597 188.143 59.6491 187.55 59.6491ZM197.516 59.5L195.359 51.8636H197.193L198.536 57.233H198.605L199.977 51.8636H201.792L203.164 57.2031H203.239L204.561 51.8636H206.401L204.238 59.5H202.364L200.932 54.3395H200.827L199.396 59.5H197.516ZM207.657 59.5V51.8636H209.457V59.5H207.657ZM208.562 50.7798C208.277 50.7798 208.032 50.6854 207.826 50.4964C207.621 50.3042 207.518 50.0739 207.518 49.8054C207.518 49.5336 207.621 49.3033 207.826 49.1143C208.032 48.9221 208.277 48.826 208.562 48.826C208.85 48.826 209.096 48.9221 209.298 49.1143C209.503 49.3033 209.606 49.5336 209.606 49.8054C209.606 50.0739 209.503 50.3042 209.298 50.4964C209.096 50.6854 208.85 50.7798 208.562 50.7798ZM215.121 51.8636V53.2557H210.731V51.8636H215.121ZM211.815 50.0341H213.614V57.2031C213.614 57.4451 213.651 57.6307 213.724 57.7599C213.8 57.8859 213.899 57.9721 214.022 58.0185C214.145 58.0649 214.281 58.0881 214.43 58.0881C214.542 58.0881 214.645 58.0798 214.738 58.0632C214.834 58.0466 214.907 58.0317 214.957 58.0185L215.26 59.4254C215.164 59.4586 215.026 59.495 214.847 59.5348C214.672 59.5746 214.456 59.5978 214.201 59.6044C213.75 59.6177 213.344 59.5497 212.983 59.4006C212.622 59.2481 212.335 59.0128 212.123 58.6946C211.914 58.3764 211.811 57.9787 211.815 57.5014V50.0341ZM218.59 55.0256V59.5H216.79V49.3182H218.55V53.1612H218.639C218.818 52.7304 219.095 52.3906 219.47 52.142C219.847 51.8902 220.328 51.7642 220.911 51.7642C221.442 51.7642 221.904 51.8752 222.298 52.0973C222.693 52.3194 222.998 52.6442 223.213 53.0717C223.432 53.4993 223.541 54.0213 223.541 54.6378V59.5H221.742V54.9162C221.742 54.4025 221.609 54.0031 221.344 53.718C221.082 53.4297 220.714 53.2855 220.24 53.2855C219.922 53.2855 219.637 53.3551 219.385 53.4943C219.137 53.6302 218.941 53.8274 218.798 54.0859C218.659 54.3445 218.59 54.6577 218.59 55.0256ZM235.749 52.5696C235.666 52.3011 235.552 52.0608 235.406 51.8487C235.264 51.6333 235.091 51.4493 234.889 51.2969C234.69 51.1444 234.461 51.0301 234.203 50.9538C233.944 50.8743 233.663 50.8345 233.358 50.8345C232.811 50.8345 232.324 50.9721 231.896 51.2472C231.469 51.5223 231.132 51.9266 230.887 52.4602C230.645 52.9905 230.524 53.6368 230.524 54.3991C230.524 55.1681 230.645 55.8194 230.887 56.353C231.129 56.8866 231.465 57.2926 231.896 57.571C232.327 57.8461 232.827 57.9837 233.398 57.9837C233.915 57.9837 234.362 57.8842 234.74 57.6854C235.121 57.4865 235.414 57.2048 235.62 56.8402C235.825 56.4723 235.928 56.0414 235.928 55.5476L236.346 55.6122H233.581V54.1705H237.713V55.3935C237.713 56.2652 237.527 57.0192 237.156 57.6555C236.785 58.2919 236.274 58.7824 235.625 59.1271C234.975 59.4685 234.229 59.6392 233.388 59.6392C232.45 59.6392 231.626 59.4287 230.917 59.0078C230.211 58.5836 229.659 57.982 229.261 57.2031C228.867 56.4209 228.67 55.4929 228.67 54.419C228.67 53.5971 228.786 52.8629 229.018 52.2166C229.253 51.5703 229.581 51.0218 230.002 50.571C230.423 50.117 230.917 49.7723 231.483 49.5369C232.05 49.2983 232.667 49.179 233.333 49.179C233.896 49.179 234.422 49.2618 234.909 49.4276C235.396 49.59 235.829 49.822 236.206 50.1236C236.588 50.4252 236.901 50.7831 237.146 51.1974C237.391 51.6117 237.552 52.0691 237.628 52.5696H235.749ZM242.748 59.6491C242.002 59.6491 241.356 59.4851 240.809 59.157C240.262 58.8288 239.838 58.3698 239.536 57.7798C239.238 57.1899 239.089 56.5005 239.089 55.7116C239.089 54.9228 239.238 54.2318 239.536 53.6385C239.838 53.0452 240.262 52.5845 240.809 52.2564C241.356 51.9283 242.002 51.7642 242.748 51.7642C243.494 51.7642 244.14 51.9283 244.687 52.2564C245.234 52.5845 245.656 53.0452 245.955 53.6385C246.256 54.2318 246.407 54.9228 246.407 55.7116C246.407 56.5005 246.256 57.1899 245.955 57.7798C245.656 58.3698 245.234 58.8288 244.687 59.157C244.14 59.4851 243.494 59.6491 242.748 59.6491ZM242.758 58.2074C243.162 58.2074 243.5 58.0964 243.772 57.8743C244.044 57.6489 244.246 57.3473 244.379 56.9695C244.514 56.5916 244.582 56.1707 244.582 55.7067C244.582 55.2393 244.514 54.8168 244.379 54.4389C244.246 54.0578 244.044 53.7545 243.772 53.5291C243.5 53.3037 243.162 53.1911 242.758 53.1911C242.344 53.1911 241.999 53.3037 241.724 53.5291C241.452 53.7545 241.248 54.0578 241.112 54.4389C240.98 54.8168 240.913 55.2393 240.913 55.7067C240.913 56.1707 240.98 56.5916 241.112 56.9695C241.248 57.3473 241.452 57.6489 241.724 57.8743C241.999 58.0964 242.344 58.2074 242.758 58.2074ZM251.265 59.6491C250.52 59.6491 249.873 59.4851 249.327 59.157C248.78 58.8288 248.355 58.3698 248.054 57.7798C247.756 57.1899 247.606 56.5005 247.606 55.7116C247.606 54.9228 247.756 54.2318 248.054 53.6385C248.355 53.0452 248.78 52.5845 249.327 52.2564C249.873 51.9283 250.52 51.7642 251.265 51.7642C252.011 51.7642 252.657 51.9283 253.204 52.2564C253.751 52.5845 254.174 53.0452 254.472 53.6385C254.774 54.2318 254.925 54.9228 254.925 55.7116C254.925 56.5005 254.774 57.1899 254.472 57.7798C254.174 58.3698 253.751 58.8288 253.204 59.157C252.657 59.4851 252.011 59.6491 251.265 59.6491ZM251.275 58.2074C251.68 58.2074 252.018 58.0964 252.29 57.8743C252.561 57.6489 252.764 57.3473 252.896 56.9695C253.032 56.5916 253.1 56.1707 253.1 55.7067C253.1 55.2393 253.032 54.8168 252.896 54.4389C252.764 54.0578 252.561 53.7545 252.29 53.5291C252.018 53.3037 251.68 53.1911 251.275 53.1911C250.861 53.1911 250.516 53.3037 250.241 53.5291C249.97 53.7545 249.766 54.0578 249.63 54.4389C249.497 54.8168 249.431 55.2393 249.431 55.7067C249.431 56.1707 249.497 56.5916 249.63 56.9695C249.766 57.3473 249.97 57.6489 250.241 57.8743C250.516 58.0964 250.861 58.2074 251.275 58.2074ZM259.773 62.5227C259.127 62.5227 258.572 62.4349 258.108 62.2592C257.644 62.0869 257.271 61.8549 256.989 61.5632C256.707 61.2715 256.512 60.9484 256.402 60.5938L258.023 60.201C258.096 60.3501 258.202 60.4976 258.341 60.6435C258.48 60.7926 258.668 60.9152 258.903 61.0114C259.142 61.1108 259.442 61.1605 259.803 61.1605C260.313 61.1605 260.736 61.0362 261.071 60.7876C261.405 60.5424 261.573 60.138 261.573 59.5746V58.1278H261.483C261.391 58.3134 261.255 58.504 261.076 58.6996C260.9 58.8951 260.666 59.0592 260.375 59.1918C260.086 59.3243 259.723 59.3906 259.286 59.3906C258.699 59.3906 258.167 59.2531 257.69 58.978C257.216 58.6996 256.838 58.2853 256.556 57.7351C256.278 57.1816 256.139 56.4889 256.139 55.657C256.139 54.8184 256.278 54.1108 256.556 53.5341C256.838 52.9541 257.218 52.5149 257.695 52.2166C258.172 51.915 258.704 51.7642 259.291 51.7642C259.738 51.7642 260.106 51.8404 260.395 51.9929C260.686 52.142 260.918 52.3227 261.091 52.5348C261.263 52.7436 261.394 52.9408 261.483 53.1264H261.583V51.8636H263.358V59.6243C263.358 60.2772 263.202 60.8175 262.89 61.245C262.579 61.6726 262.153 61.9924 261.613 62.2045C261.072 62.4167 260.459 62.5227 259.773 62.5227ZM259.788 57.9787C260.169 57.9787 260.494 57.8859 260.762 57.7003C261.031 57.5147 261.235 57.2479 261.374 56.8999C261.513 56.5518 261.583 56.1342 261.583 55.647C261.583 55.1664 261.513 54.7455 261.374 54.3842C261.238 54.023 261.036 53.7429 260.767 53.544C260.502 53.3419 260.176 53.2408 259.788 53.2408C259.387 53.2408 259.052 53.3452 258.784 53.554C258.515 53.7628 258.313 54.0495 258.177 54.4141C258.041 54.7753 257.973 55.1863 257.973 55.647C257.973 56.1143 258.041 56.5237 258.177 56.875C258.316 57.223 258.52 57.4948 258.789 57.6903C259.06 57.8826 259.394 57.9787 259.788 57.9787ZM267.002 49.3182V59.5H265.202V49.3182H267.002ZM272.233 59.6491C271.468 59.6491 270.806 59.4901 270.249 59.1719C269.696 58.8504 269.27 58.3963 268.972 57.8097C268.673 57.2197 268.524 56.5253 268.524 55.7266C268.524 54.9411 268.673 54.2517 268.972 53.6584C269.273 53.0618 269.694 52.5978 270.235 52.2663C270.775 51.9316 271.41 51.7642 272.139 51.7642C272.609 51.7642 273.053 51.8404 273.471 51.9929C273.892 52.142 274.263 52.3741 274.585 52.6889C274.91 53.0038 275.165 53.4048 275.35 53.892C275.536 54.3759 275.629 54.9527 275.629 55.6222V56.174H269.369V54.9609H273.904C273.9 54.6162 273.826 54.3097 273.68 54.0412C273.534 53.7694 273.33 53.5556 273.068 53.3999C272.81 53.2441 272.508 53.1662 272.164 53.1662C271.796 53.1662 271.472 53.2557 271.194 53.4347C270.916 53.6103 270.699 53.8423 270.543 54.1307C270.39 54.4157 270.312 54.7289 270.309 55.0703V56.1293C270.309 56.5734 270.39 56.9545 270.553 57.2727C270.715 57.5876 270.942 57.8295 271.234 57.9986C271.526 58.1643 271.867 58.2472 272.258 58.2472C272.52 58.2472 272.757 58.2107 272.969 58.1378C273.181 58.0616 273.365 57.9505 273.521 57.8047C273.677 57.6589 273.794 57.4782 273.874 57.2628L275.554 57.4517C275.448 57.8958 275.246 58.2836 274.948 58.6151C274.653 58.9432 274.275 59.1984 273.814 59.3807C273.353 59.5597 272.826 59.6491 272.233 59.6491Z" fill="white"/>
</g>
<path fill-rule="evenodd" clip-rule="evenodd" d="M120 54.716C120 54.0423 119.938 53.3946 119.824 52.7728H110.694V56.4476H115.911C115.686 57.6351 115.003 58.6412 113.977 59.3148V61.6985H117.109C118.942 60.0446 120 57.6092 120 54.716Z" fill="#4285F4"/>
<path fill-rule="evenodd" clip-rule="evenodd" d="M110.694 64C113.311 64 115.506 63.1494 117.109 61.6985L113.977 59.3148C113.109 59.8848 111.998 60.2216 110.694 60.2216C108.169 60.2216 106.032 58.5505 105.27 56.305H102.031V58.7664C103.626 61.8711 106.904 64 110.694 64Z" fill="#34A853"/>
<path fill-rule="evenodd" clip-rule="evenodd" d="M105.27 56.305C105.076 55.735 104.966 55.1262 104.966 54.5001C104.966 53.8739 105.076 53.2651 105.27 52.6951V50.2337H102.031C101.375 51.5162 101 52.9671 101 54.5001C101 56.033 101.375 57.4839 102.031 58.7664L105.27 56.305Z" fill="#FBBC05"/>
<path fill-rule="evenodd" clip-rule="evenodd" d="M110.694 48.7784C112.117 48.7784 113.395 49.2577 114.4 50.1991L117.18 47.4743C115.501 45.9414 113.307 45 110.694 45C106.904 45 103.626 47.1289 102.031 50.2337L105.27 52.6951C106.032 50.4496 108.169 48.7784 110.694 48.7784Z" fill="#EA4335"/>
<defs>
<filter id="filter0_d_929_9236" x="0" y="0" width="370" height="118" filterUnits="userSpaceOnUse" color-interpolation-filters="sRGB">
<feFlood flood-opacity="0" result="BackgroundImageFix"/>
<feColorMatrix in="SourceAlpha" type="matrix" values="0 0 0 0 0 0 0 0 0 0 0 0 0 0 0 0 0 0 127 0" result="hardAlpha"/>
<feOffset dy="5"/>
<feGaussianBlur stdDeviation="17.5"/>
<feComposite in2="hardAlpha" operator="out"/>
<feColorMatrix type="matrix" values="0 0 0 0 0.0705882 0 0 0 0 0.0705882 0 0 0 0 0.0705882 0 0 0 0.05 0"/>
<feBlend mode="normal" in2="BackgroundImageFix" result="effect1_dropShadow_929_9236"/>
<feBlend mode="normal" in="SourceGraphic" in2="effect1_dropShadow_929_9236" result="shape"/>
</filter>
</defs>
</svg>
