<svg width="79" height="206" viewBox="0 0 79 206" fill="none" xmlns="http://www.w3.org/2000/svg">
<g filter="url(#filter0_d_230_16204)">
<path d="M22 25C22 18.3726 27.3726 13 34 13H45C51.6274 13 57 18.3726 57 25V162.21C57 168.837 51.6274 174.21 45 174.21H34C27.3726 174.21 22 168.837 22 162.21V25Z" fill="url(#paint0_linear_230_16204)"/>
</g>
<g clip-path="url(#clip0_230_16204)">
<path d="M30 33.668C30 34.2422 30.4805 34.7109 31.043 34.7109H38.625V42.293C38.625 42.8555 39.0938 43.3359 39.668 43.3359C40.2422 43.3359 40.7227 42.8555 40.7227 42.293V34.7109H48.293C48.8555 34.7109 49.3359 34.2422 49.3359 33.668C49.3359 33.0938 48.8555 32.6133 48.293 32.6133H40.7227V25.043C40.7227 24.4805 40.2422 24 39.668 24C39.0938 24 38.625 24.4805 38.625 25.043V32.6133H31.043C30.4805 32.6133 30 33.0938 30 33.668Z" fill="white"/>
</g>
<path d="M44.0971 132.199C44.0938 132.541 43.8934 132.765 43.579 132.762C43.4423 132.76 43.3127 132.725 43.1492 132.669L35.3219 129.784C34.845 129.609 34.6286 129.367 34.6327 128.93C34.6369 128.493 34.8579 128.255 35.3381 128.089L43.219 125.355C43.3699 125.301 43.5138 125.269 43.6437 125.27C43.9649 125.273 44.161 125.5 44.1577 125.849C44.1546 126.177 43.9956 126.36 43.591 126.486L41.2526 127.25L41.2192 130.743L43.5427 131.551C43.9516 131.685 44.1002 131.871 44.0971 132.199ZM40.2585 130.412L40.2857 127.562L36.1163 128.924L36.1158 128.971L40.2585 130.412ZM42.9973 119.213C43.72 119.425 44.2377 120.333 44.2276 121.392C44.2115 123.074 43.0186 124.149 41.214 124.132L39.7785 124.119C37.9671 124.101 36.7951 122.976 36.8112 121.287C36.8208 120.283 37.2727 119.494 38.0069 119.214L38.0074 119.159L34.9245 119.13C34.5076 119.126 34.2704 118.905 34.2739 118.535C34.2774 118.166 34.5188 117.95 34.9358 117.954L43.5555 118.036C43.9725 118.04 44.2098 118.241 44.2063 118.603C44.203 118.958 43.9687 119.154 43.5584 119.157L42.9979 119.152L42.9973 119.213ZM40.9588 122.933C42.3601 122.947 43.1938 122.271 43.2049 121.102C43.2159 119.947 42.4095 119.201 41.1176 119.189L39.8257 119.176C38.6841 119.165 37.8492 119.971 37.8385 121.092C37.8277 122.234 38.662 122.912 40.0497 122.925L40.9588 122.933ZM43.0734 111.243C43.796 111.455 44.3138 112.362 44.3037 113.422C44.2876 115.104 43.0947 116.179 41.2901 116.162L39.8546 116.148C38.0431 116.131 36.8712 115.005 36.8873 113.317C36.8969 112.312 37.3488 111.523 38.083 111.243L38.0835 111.189L35.0006 111.159C34.5836 111.155 34.3465 110.934 34.35 110.565C34.3535 110.196 34.5949 109.98 35.0118 109.984L43.6316 110.066C44.0485 110.07 44.2859 110.27 44.2824 110.633C44.279 110.988 44.0447 111.184 43.6345 111.187L43.074 111.182L43.0734 111.243ZM41.0349 114.963C42.4362 114.976 43.2698 114.301 43.281 113.132C43.292 111.977 42.4856 111.231 41.1937 111.218L39.9018 111.206C38.7602 111.195 37.9253 112.001 37.9146 113.122C37.9037 114.263 38.7381 114.941 40.1258 114.954L41.0349 114.963ZM40.3401 105.386L38.8568 105.372C36.2661 105.347 34.7477 103.992 34.7698 101.682C34.7806 100.547 35.1514 99.6621 35.8275 99.0123C36.3104 98.5589 36.9147 98.2707 37.3112 98.2745C37.6461 98.2777 37.8424 98.4846 37.8394 98.7991C37.8369 99.0657 37.7259 99.2355 37.3618 99.4234C36.338 99.9606 35.8596 100.66 35.8502 101.644C35.8349 103.251 36.9337 104.157 38.8751 104.175L40.3447 104.189C42.3065 104.208 43.4088 103.323 43.4241 101.717C43.4336 100.719 42.976 99.9624 41.9829 99.4402C41.6429 99.2456 41.5144 99.1008 41.5168 98.8478C41.5201 98.5061 41.7338 98.3167 42.0551 98.3198C42.4721 98.3237 43.0775 98.6371 43.5379 99.1064C44.1743 99.7551 44.5076 100.654 44.4969 101.775C44.4747 104.092 42.9582 105.411 40.3401 105.386ZM43.4293 92.5836C44.1224 93.0209 44.4914 93.7559 44.4827 94.665C44.4693 96.0663 43.5717 97.0012 42.2524 96.9886C40.9468 96.9761 40.1424 96.0182 40.1575 94.4392L40.1756 92.5389L39.4784 92.5322C38.5556 92.5234 38.0787 93.0726 38.0688 94.1048C38.063 94.7131 38.271 95.1253 38.759 95.5606C38.9489 95.7265 39.0157 95.8844 39.0137 96.0963C39.0111 96.3697 38.8248 96.5525 38.5445 96.5498C38.1412 96.546 37.7474 96.2619 37.4248 95.6846C37.1895 95.2654 37.0648 94.7241 37.0715 94.02C37.088 92.2906 37.9448 91.3417 39.4828 91.3564L43.8166 91.3978C44.2267 91.4017 44.4639 91.6159 44.4605 91.9782C44.4572 92.3268 44.2228 92.5296 43.833 92.5396L43.4297 92.5357L43.4293 92.5836ZM42.2365 95.7852C42.9816 95.7924 43.4931 95.2093 43.5014 94.3344C43.5109 93.3432 42.8347 92.5642 41.9392 92.5557L41.1258 92.5479L41.1082 94.3867C41.0998 95.2685 41.5051 95.7783 42.2365 95.7852ZM43.8401 88.2123C44.2503 88.2162 44.4943 88.4305 44.4908 88.8064C44.4872 89.1756 44.2391 89.392 43.8289 89.388L37.8204 89.3307C37.4171 89.3268 37.1664 89.092 37.1699 88.7297C37.1733 88.3674 37.4214 88.1579 37.8179 88.1617L38.0913 88.1643L38.0916 88.1301C37.4527 87.748 37.1367 87.1913 37.143 86.535C37.1449 86.33 37.1876 86.1595 37.2708 86.0304C37.3611 85.8808 37.5191 85.8003 37.7037 85.8021C37.9156 85.8041 38.0584 85.8807 38.1458 86.0387C38.213 86.1624 38.2387 86.3336 38.2365 86.5591C38.2333 87.6119 38.7955 88.1642 39.978 88.1754L43.8401 88.2123ZM43.3716 80.0043C44.0942 80.2163 44.6119 81.1237 44.6018 82.1832C44.5858 83.8647 43.3928 84.9403 41.5882 84.9231L40.1528 84.9094C38.3413 84.8921 37.1694 83.7666 37.1855 82.0782C37.1951 81.0734 37.647 80.2847 38.3811 80.0046L38.3816 79.9499L35.2988 79.9204C34.8818 79.9165 34.6446 79.6954 34.6482 79.3263C34.6517 78.9572 34.893 78.7407 35.31 78.7447L43.9297 78.827C44.3467 78.831 44.5841 79.0315 44.5806 79.3938C44.5772 79.7492 44.3429 79.9452 43.9327 79.9482L43.3722 79.9428L43.3716 80.0043ZM41.3331 83.7243C42.7344 83.7377 43.568 83.062 43.5792 81.8931C43.5902 80.7379 42.7838 79.9919 41.4919 79.9796L40.1999 79.9672C39.0584 79.9563 38.2235 80.7619 38.2128 81.8829C38.2019 83.0245 39.0363 83.7024 40.4239 83.7156L41.3331 83.7243Z" fill="white"/>
<defs>
<filter id="filter0_d_230_16204" x="0" y="0" width="79" height="205.21" filterUnits="userSpaceOnUse" color-interpolation-filters="sRGB">
<feFlood flood-opacity="0" result="BackgroundImageFix"/>
<feColorMatrix in="SourceAlpha" type="matrix" values="0 0 0 0 0 0 0 0 0 0 0 0 0 0 0 0 0 0 127 0" result="hardAlpha"/>
<feOffset dy="9"/>
<feGaussianBlur stdDeviation="11"/>
<feColorMatrix type="matrix" values="0 0 0 0 0 0 0 0 0 0 0 0 0 0 0 0 0 0 0.12 0"/>
<feBlend mode="normal" in2="BackgroundImageFix" result="effect1_dropShadow_230_16204"/>
<feBlend mode="normal" in="SourceGraphic" in2="effect1_dropShadow_230_16204" result="shape"/>
</filter>
<linearGradient id="paint0_linear_230_16204" x1="57" y1="6.83609" x2="16.083" y2="8.66698" gradientUnits="userSpaceOnUse">
<stop offset="0.0001" stop-color="#7883FF"/>
<stop offset="1" stop-color="#4756FF"/>
</linearGradient>
<clipPath id="clip0_230_16204">
<rect width="19.6875" height="19.3477" fill="white" transform="translate(30 24)"/>
</clipPath>
</defs>
</svg>
