<svg width="370" height="118" viewBox="0 0 370 118" fill="none" xmlns="http://www.w3.org/2000/svg">
<g filter="url(#filter0_d_935_9321)">
<path d="M35 42C35 35.3726 40.3726 30 47 30H323C329.627 30 335 35.3726 335 42V66C335 72.6274 329.627 78 323 78H47C40.3726 78 35 72.6274 35 66V42Z" fill="white" shape-rendering="crispEdges"/>
<path d="M47 30.5H323C329.351 30.5 334.5 35.6487 334.5 42V66C334.5 72.3513 329.351 77.5 323 77.5H47C40.6487 77.5 35.5 72.3513 35.5 66V42C35.5 35.6487 40.6487 30.5 47 30.5Z" stroke="#F7F7F7" shape-rendering="crispEdges"/>
<path d="M143.854 52.7536H141.995C141.942 52.4486 141.844 52.1785 141.702 51.9432C141.559 51.7045 141.382 51.5024 141.17 51.3366C140.957 51.1709 140.715 51.0466 140.444 50.9638C140.175 50.8776 139.885 50.8345 139.574 50.8345C139.02 50.8345 138.53 50.9737 138.102 51.2521C137.675 51.5272 137.34 51.9316 137.098 52.4652C136.856 52.9955 136.735 53.6435 136.735 54.4091C136.735 55.188 136.856 55.8442 137.098 56.3778C137.343 56.9081 137.678 57.3092 138.102 57.581C138.53 57.8494 139.019 57.9837 139.569 57.9837C139.874 57.9837 140.159 57.9439 140.424 57.8643C140.692 57.7815 140.933 57.6605 141.145 57.5014C141.36 57.3423 141.541 57.1468 141.687 56.9148C141.836 56.6828 141.939 56.4176 141.995 56.1193L143.854 56.1293C143.785 56.6132 143.634 57.0672 143.402 57.4915C143.173 57.9157 142.873 58.2902 142.502 58.6151C142.131 58.9366 141.697 59.1884 141.199 59.3707C140.702 59.5497 140.15 59.6392 139.544 59.6392C138.649 59.6392 137.85 59.4321 137.148 59.0178C136.445 58.6035 135.891 58.0052 135.487 57.223C135.083 56.4408 134.881 55.5028 134.881 54.4091C134.881 53.312 135.084 52.3741 135.492 51.5952C135.9 50.813 136.455 50.2147 137.157 49.8004C137.86 49.3861 138.656 49.179 139.544 49.179C140.111 49.179 140.638 49.2585 141.125 49.4176C141.612 49.5767 142.046 49.8104 142.427 50.1186C142.809 50.4235 143.122 50.7981 143.367 51.2422C143.616 51.683 143.778 52.1868 143.854 52.7536ZM148.795 59.6491C148.049 59.6491 147.403 59.4851 146.856 59.157C146.309 58.8288 145.885 58.3698 145.583 57.7798C145.285 57.1899 145.136 56.5005 145.136 55.7116C145.136 54.9228 145.285 54.2318 145.583 53.6385C145.885 53.0452 146.309 52.5845 146.856 52.2564C147.403 51.9283 148.049 51.7642 148.795 51.7642C149.54 51.7642 150.187 51.9283 150.734 52.2564C151.281 52.5845 151.703 53.0452 152.001 53.6385C152.303 54.2318 152.454 54.9228 152.454 55.7116C152.454 56.5005 152.303 57.1899 152.001 57.7798C151.703 58.3698 151.281 58.8288 150.734 59.157C150.187 59.4851 149.54 59.6491 148.795 59.6491ZM148.805 58.2074C149.209 58.2074 149.547 58.0964 149.819 57.8743C150.091 57.6489 150.293 57.3473 150.425 56.9695C150.561 56.5916 150.629 56.1707 150.629 55.7067C150.629 55.2393 150.561 54.8168 150.425 54.4389C150.293 54.0578 150.091 53.7545 149.819 53.5291C149.547 53.3037 149.209 53.1911 148.805 53.1911C148.39 53.1911 148.046 53.3037 147.771 53.5291C147.499 53.7545 147.295 54.0578 147.159 54.4389C147.027 54.8168 146.96 55.2393 146.96 55.7067C146.96 56.1707 147.027 56.5916 147.159 56.9695C147.295 57.3473 147.499 57.6489 147.771 57.8743C148.046 58.0964 148.39 58.2074 148.805 58.2074ZM155.781 55.0256V59.5H153.981V51.8636H155.702V53.1612H155.791C155.967 52.7337 156.247 52.3939 156.631 52.142C157.019 51.8902 157.498 51.7642 158.068 51.7642C158.595 51.7642 159.054 51.8769 159.445 52.1023C159.84 52.3277 160.144 52.6541 160.36 53.0817C160.579 53.5092 160.686 54.0279 160.683 54.6378V59.5H158.883V54.9162C158.883 54.4058 158.751 54.0064 158.486 53.718C158.224 53.4297 157.861 53.2855 157.397 53.2855C157.082 53.2855 156.802 53.3551 156.557 53.4943C156.315 53.6302 156.124 53.8274 155.985 54.0859C155.849 54.3445 155.781 54.6577 155.781 55.0256ZM166.326 51.8636V53.2557H161.936V51.8636H166.326ZM163.02 50.0341H164.819V57.2031C164.819 57.4451 164.856 57.6307 164.929 57.7599C165.005 57.8859 165.104 57.9721 165.227 58.0185C165.35 58.0649 165.486 58.0881 165.635 58.0881C165.747 58.0881 165.85 58.0798 165.943 58.0632C166.039 58.0466 166.112 58.0317 166.162 58.0185L166.465 59.4254C166.369 59.4586 166.231 59.495 166.052 59.5348C165.877 59.5746 165.661 59.5978 165.406 59.6044C164.955 59.6177 164.549 59.5497 164.188 59.4006C163.827 59.2481 163.54 59.0128 163.328 58.6946C163.119 58.3764 163.016 57.9787 163.02 57.5014V50.0341ZM167.831 59.5V51.8636H169.631V59.5H167.831ZM168.736 50.7798C168.451 50.7798 168.205 50.6854 168 50.4964C167.795 50.3042 167.692 50.0739 167.692 49.8054C167.692 49.5336 167.795 49.3033 168 49.1143C168.205 48.9221 168.451 48.826 168.736 48.826C169.024 48.826 169.269 48.9221 169.472 49.1143C169.677 49.3033 169.78 49.5336 169.78 49.8054C169.78 50.0739 169.677 50.3042 169.472 50.4964C169.269 50.6854 169.024 50.7798 168.736 50.7798ZM173.281 55.0256V59.5H171.481V51.8636H173.202V53.1612H173.291C173.467 52.7337 173.747 52.3939 174.131 52.142C174.519 51.8902 174.998 51.7642 175.568 51.7642C176.095 51.7642 176.554 51.8769 176.945 52.1023C177.34 52.3277 177.644 52.6541 177.86 53.0817C178.079 53.5092 178.186 54.0279 178.183 54.6378V59.5H176.383V54.9162C176.383 54.4058 176.251 54.0064 175.986 53.718C175.724 53.4297 175.361 53.2855 174.897 53.2855C174.582 53.2855 174.302 53.3551 174.057 53.4943C173.815 53.6302 173.624 53.8274 173.485 54.0859C173.349 54.3445 173.281 54.6577 173.281 55.0256ZM184.88 56.2884V51.8636H186.68V59.5H184.934V58.1428H184.855C184.683 58.5703 184.399 58.92 184.005 59.1918C183.614 59.4635 183.131 59.5994 182.558 59.5994C182.058 59.5994 181.615 59.4884 181.231 59.2663C180.849 59.041 180.551 58.7145 180.336 58.2869C180.12 57.8561 180.013 57.3357 180.013 56.7259V51.8636H181.812V56.4474C181.812 56.9313 181.945 57.3158 182.21 57.6009C182.475 57.8859 182.823 58.0284 183.254 58.0284C183.519 58.0284 183.776 57.9638 184.025 57.8345C184.273 57.7053 184.477 57.513 184.636 57.2578C184.799 56.9993 184.88 56.6761 184.88 56.2884ZM191.911 59.6491C191.145 59.6491 190.484 59.4901 189.927 59.1719C189.374 58.8504 188.948 58.3963 188.65 57.8097C188.351 57.2197 188.202 56.5253 188.202 55.7266C188.202 54.9411 188.351 54.2517 188.65 53.6584C188.951 53.0618 189.372 52.5978 189.912 52.2663C190.453 51.9316 191.087 51.7642 191.816 51.7642C192.287 51.7642 192.731 51.8404 193.149 51.9929C193.57 52.142 193.941 52.3741 194.262 52.6889C194.587 53.0038 194.842 53.4048 195.028 53.892C195.214 54.3759 195.306 54.9527 195.306 55.6222V56.174H189.047V54.9609H193.581C193.578 54.6162 193.503 54.3097 193.358 54.0412C193.212 53.7694 193.008 53.5556 192.746 53.3999C192.488 53.2441 192.186 53.1662 191.841 53.1662C191.473 53.1662 191.15 53.2557 190.872 53.4347C190.593 53.6103 190.376 53.8423 190.221 54.1307C190.068 54.4157 189.99 54.7289 189.987 55.0703V56.1293C189.987 56.5734 190.068 56.9545 190.23 57.2727C190.393 57.5876 190.62 57.8295 190.912 57.9986C191.203 58.1643 191.545 58.2472 191.936 58.2472C192.198 58.2472 192.435 58.2107 192.647 58.1378C192.859 58.0616 193.043 57.9505 193.199 57.8047C193.354 57.6589 193.472 57.4782 193.551 57.2628L195.232 57.4517C195.126 57.8958 194.924 58.2836 194.625 58.6151C194.33 58.9432 193.953 59.1984 193.492 59.3807C193.031 59.5597 192.504 59.6491 191.911 59.6491ZM201.878 59.5L199.72 51.8636H201.555L202.897 57.233H202.966L204.339 51.8636H206.153L207.525 57.2031H207.6L208.922 51.8636H210.762L208.599 59.5H206.725L205.293 54.3395H205.189L203.757 59.5H201.878ZM212.018 59.5V51.8636H213.818V59.5H212.018ZM212.923 50.7798C212.638 50.7798 212.393 50.6854 212.188 50.4964C211.982 50.3042 211.879 50.0739 211.879 49.8054C211.879 49.5336 211.982 49.3033 212.188 49.1143C212.393 48.9221 212.638 48.826 212.923 48.826C213.212 48.826 213.457 48.9221 213.659 49.1143C213.865 49.3033 213.967 49.5336 213.967 49.8054C213.967 50.0739 213.865 50.3042 213.659 50.4964C213.457 50.6854 213.212 50.7798 212.923 50.7798ZM219.482 51.8636V53.2557H215.092V51.8636H219.482ZM216.176 50.0341H217.976V57.2031C217.976 57.4451 218.012 57.6307 218.085 57.7599C218.161 57.8859 218.261 57.9721 218.383 58.0185C218.506 58.0649 218.642 58.0881 218.791 58.0881C218.904 58.0881 219.006 58.0798 219.099 58.0632C219.195 58.0466 219.268 58.0317 219.318 58.0185L219.621 59.4254C219.525 59.4586 219.388 59.495 219.209 59.5348C219.033 59.5746 218.818 59.5978 218.562 59.6044C218.112 59.6177 217.706 59.5497 217.344 59.4006C216.983 59.2481 216.696 59.0128 216.484 58.6946C216.275 58.3764 216.173 57.9787 216.176 57.5014V50.0341ZM222.951 55.0256V59.5H221.151V49.3182H222.911V53.1612H223.001C223.18 52.7304 223.456 52.3906 223.831 52.142C224.209 51.8902 224.689 51.7642 225.273 51.7642C225.803 51.7642 226.265 51.8752 226.66 52.0973C227.054 52.3194 227.359 52.6442 227.575 53.0717C227.793 53.4993 227.903 54.0213 227.903 54.6378V59.5H226.103V54.9162C226.103 54.4025 225.97 54.0031 225.705 53.718C225.443 53.4297 225.076 53.2855 224.602 53.2855C224.283 53.2855 223.998 53.3551 223.746 53.4943C223.498 53.6302 223.302 53.8274 223.16 54.0859C223.021 54.3445 222.951 54.6577 222.951 55.0256ZM234.597 59.5H232.628L236.213 49.3182H238.49L242.079 59.5H240.11L237.391 51.4062H237.311L234.597 59.5ZM234.662 55.5078H240.031V56.9893H234.662V55.5078ZM243.341 62.3636V51.8636H245.111V53.1264H245.215C245.308 52.9408 245.439 52.7436 245.608 52.5348C245.777 52.3227 246.006 52.142 246.294 51.9929C246.582 51.8404 246.95 51.7642 247.398 51.7642C247.988 51.7642 248.519 51.915 248.993 52.2166C249.471 52.5149 249.849 52.9574 250.127 53.544C250.409 54.1274 250.55 54.8433 250.55 55.6918C250.55 56.5303 250.412 57.2429 250.137 57.8295C249.862 58.4162 249.487 58.8636 249.013 59.1719C248.539 59.4801 248.002 59.6342 247.403 59.6342C246.965 59.6342 246.602 59.5613 246.314 59.4155C246.025 59.2696 245.793 59.094 245.618 58.8885C245.445 58.6797 245.311 58.4825 245.215 58.2969H245.14V62.3636H243.341ZM245.106 55.6818C245.106 56.1757 245.175 56.6082 245.314 56.9794C245.457 57.3506 245.661 57.6406 245.926 57.8494C246.194 58.0549 246.519 58.1577 246.9 58.1577C247.298 58.1577 247.631 58.0516 247.9 57.8395C248.168 57.6241 248.37 57.3307 248.506 56.9595C248.645 56.585 248.715 56.1591 248.715 55.6818C248.715 55.2079 248.647 54.7869 248.511 54.419C248.375 54.0511 248.173 53.7628 247.905 53.554C247.636 53.3452 247.301 53.2408 246.9 53.2408C246.516 53.2408 246.189 53.3419 245.921 53.544C245.653 53.7462 245.449 54.0296 245.309 54.3942C245.174 54.7588 245.106 55.188 245.106 55.6818ZM252.091 62.3636V51.8636H253.861V53.1264H253.965C254.058 52.9408 254.189 52.7436 254.358 52.5348C254.527 52.3227 254.756 52.142 255.044 51.9929C255.332 51.8404 255.7 51.7642 256.148 51.7642C256.738 51.7642 257.269 51.915 257.743 52.2166C258.221 52.5149 258.599 52.9574 258.877 53.544C259.159 54.1274 259.3 54.8433 259.3 55.6918C259.3 56.5303 259.162 57.2429 258.887 57.8295C258.612 58.4162 258.237 58.8636 257.763 59.1719C257.289 59.4801 256.752 59.6342 256.153 59.6342C255.715 59.6342 255.352 59.5613 255.064 59.4155C254.775 59.2696 254.543 59.094 254.368 58.8885C254.195 58.6797 254.061 58.4825 253.965 58.2969H253.89V62.3636H252.091ZM253.856 55.6818C253.856 56.1757 253.925 56.6082 254.064 56.9794C254.207 57.3506 254.411 57.6406 254.676 57.8494C254.944 58.0549 255.269 58.1577 255.65 58.1577C256.048 58.1577 256.381 58.0516 256.65 57.8395C256.918 57.6241 257.12 57.3307 257.256 56.9595C257.395 56.585 257.465 56.1591 257.465 55.6818C257.465 55.2079 257.397 54.7869 257.261 54.419C257.125 54.0511 256.923 53.7628 256.655 53.554C256.386 53.3452 256.051 53.2408 255.65 53.2408C255.266 53.2408 254.939 53.3419 254.671 53.544C254.403 53.7462 254.199 54.0296 254.059 54.3942C253.924 54.7588 253.856 55.188 253.856 55.6818ZM262.64 49.3182V59.5H260.841V49.3182H262.64ZM267.872 59.6491C267.106 59.6491 266.445 59.4901 265.888 59.1719C265.335 58.8504 264.909 58.3963 264.61 57.8097C264.312 57.2197 264.163 56.5253 264.163 55.7266C264.163 54.9411 264.312 54.2517 264.61 53.6584C264.912 53.0618 265.333 52.5978 265.873 52.2663C266.413 51.9316 267.048 51.7642 267.777 51.7642C268.248 51.7642 268.692 51.8404 269.11 51.9929C269.531 52.142 269.902 52.3741 270.223 52.6889C270.548 53.0038 270.803 53.4048 270.989 53.892C271.175 54.3759 271.267 54.9527 271.267 55.6222V56.174H265.008V54.9609H269.542C269.539 54.6162 269.464 54.3097 269.319 54.0412C269.173 53.7694 268.969 53.5556 268.707 53.3999C268.449 53.2441 268.147 53.1662 267.802 53.1662C267.434 53.1662 267.111 53.2557 266.833 53.4347C266.554 53.6103 266.337 53.8423 266.181 54.1307C266.029 54.4157 265.951 54.7289 265.948 55.0703V56.1293C265.948 56.5734 266.029 56.9545 266.191 57.2727C266.354 57.5876 266.581 57.8295 266.873 57.9986C267.164 58.1643 267.506 58.2472 267.897 58.2472C268.158 58.2472 268.395 58.2107 268.608 58.1378C268.82 58.0616 269.004 57.9505 269.159 57.8047C269.315 57.6589 269.433 57.4782 269.512 57.2628L271.193 57.4517C271.087 57.8958 270.885 58.2836 270.586 58.6151C270.291 58.9432 269.913 59.1984 269.453 59.3807C268.992 59.5597 268.465 59.6491 267.872 59.6491Z" fill="#121212"/>
</g>
<path d="M118.644 57.5861C118.338 58.2848 117.977 58.928 117.559 59.5193C116.988 60.3255 116.521 60.8835 116.161 61.1934C115.603 61.702 115.005 61.9625 114.364 61.9773C113.905 61.9773 113.35 61.8477 112.705 61.5847C112.058 61.323 111.463 61.1934 110.919 61.1934C110.348 61.1934 109.736 61.323 109.082 61.5847C108.426 61.8477 107.898 61.9847 107.494 61.9983C106.88 62.0242 106.268 61.7563 105.657 61.1934C105.267 60.8563 104.779 60.2786 104.195 59.4601C103.568 58.586 103.053 57.5725 102.649 56.417C102.217 55.1689 102 53.9603 102 52.7902C102 51.4498 102.292 50.2938 102.878 49.3251C103.338 48.547 103.95 47.9332 104.716 47.4826C105.482 47.0319 106.31 46.8023 107.201 46.7876C107.689 46.7876 108.328 46.9371 109.123 47.231C109.916 47.5258 110.425 47.6753 110.648 47.6753C110.814 47.6753 111.38 47.5005 112.338 47.1519C113.244 46.8287 114.009 46.6949 114.636 46.7476C116.334 46.8834 117.61 47.5467 118.458 48.7418C116.939 49.6536 116.188 50.9307 116.203 52.5691C116.217 53.8452 116.684 54.9071 117.602 55.7503C118.018 56.1417 118.483 56.4441 119 56.6589C118.888 56.9812 118.77 57.2898 118.644 57.5861ZM114.749 42.4001C114.749 43.4003 114.381 44.3343 113.646 45.1987C112.759 46.2263 111.686 46.8201 110.522 46.7264C110.507 46.6064 110.499 46.4801 110.499 46.3474C110.499 45.3872 110.921 44.3596 111.67 43.5193C112.044 43.0939 112.519 42.7402 113.096 42.458C113.672 42.18 114.216 42.0263 114.728 42C114.743 42.1337 114.749 42.2675 114.749 42.4001Z" fill="#121212"/>
<defs>
<filter id="filter0_d_935_9321" x="0" y="0" width="370" height="118" filterUnits="userSpaceOnUse" color-interpolation-filters="sRGB">
<feFlood flood-opacity="0" result="BackgroundImageFix"/>
<feColorMatrix in="SourceAlpha" type="matrix" values="0 0 0 0 0 0 0 0 0 0 0 0 0 0 0 0 0 0 127 0" result="hardAlpha"/>
<feOffset dy="5"/>
<feGaussianBlur stdDeviation="17.5"/>
<feComposite in2="hardAlpha" operator="out"/>
<feColorMatrix type="matrix" values="0 0 0 0 0.0705882 0 0 0 0 0.0705882 0 0 0 0 0.0705882 0 0 0 0.05 0"/>
<feBlend mode="normal" in2="BackgroundImageFix" result="effect1_dropShadow_935_9321"/>
<feBlend mode="normal" in="SourceGraphic" in2="effect1_dropShadow_935_9321" result="shape"/>
</filter>
</defs>
</svg>
