<svg width="300" height="48" viewBox="0 0 300 48" fill="none" xmlns="http://www.w3.org/2000/svg">
<rect width="300" height="48" rx="12" fill="#4756FF"/>
<path d="M94.8731 29.1875C91.6778 29.1875 89.6466 26.9375 89.6466 23.3594V23.3516C89.6466 19.7734 91.6778 17.5391 94.8731 17.5391C97.3575 17.5391 99.2247 19.0703 99.5762 21.2969L99.5919 21.3672H97.8575L97.8106 21.2109C97.4356 19.8906 96.3887 19.0859 94.8731 19.0859C92.7794 19.0859 91.4356 20.7422 91.4356 23.3516V23.3594C91.4356 25.9688 92.7872 27.6406 94.8731 27.6406C96.3731 27.6406 97.4122 26.8594 97.8341 25.4297L97.8575 25.3594H99.5919L99.5841 25.4375C99.2325 27.6797 97.3653 29.1875 94.8731 29.1875ZM100.735 29V20.7812H102.422V22.1875H102.461C102.727 21.2266 103.414 20.625 104.352 20.625C104.594 20.625 104.805 20.6641 104.938 20.6875V22.2578C104.805 22.2031 104.508 22.1641 104.18 22.1641C103.094 22.1641 102.422 22.875 102.422 24.1016V29H100.735ZM108.893 29.1641C106.479 29.1641 105.018 27.5156 105.018 24.9219V24.9141C105.018 22.3438 106.502 20.625 108.807 20.625C111.112 20.625 112.526 22.2812 112.526 24.75V25.3203H106.706C106.737 26.875 107.588 27.7812 108.932 27.7812C109.932 27.7812 110.596 27.2656 110.807 26.6484L110.831 26.5859H112.432L112.417 26.6719C112.151 27.9766 110.885 29.1641 108.893 29.1641ZM108.815 22.0078C107.721 22.0078 106.877 22.75 106.729 24.125H110.854C110.713 22.7031 109.917 22.0078 108.815 22.0078ZM116.012 29.1484C114.372 29.1484 113.27 28.1406 113.27 26.6641V26.6484C113.27 25.2188 114.38 24.3438 116.325 24.2266L118.559 24.0938V23.4766C118.559 22.5703 117.973 22.0234 116.927 22.0234C115.95 22.0234 115.348 22.4844 115.208 23.1406L115.192 23.2109H113.598L113.606 23.125C113.723 21.7109 114.95 20.625 116.973 20.625C118.981 20.625 120.255 21.6875 120.255 23.3359V29H118.559V27.7031H118.528C118.052 28.5859 117.098 29.1484 116.012 29.1484ZM114.973 26.625C114.973 27.3438 115.567 27.7969 116.473 27.7969C117.661 27.7969 118.559 26.9922 118.559 25.9219V25.2812L116.552 25.4062C115.536 25.4688 114.973 25.9141 114.973 26.6094V26.625ZM124.538 29.1641C122.913 29.1641 122.132 28.4766 122.132 26.8359V22.125H120.952V20.7812H122.132V18.6406H123.858V20.7812H125.397V22.125H123.858V26.7344C123.858 27.5703 124.233 27.8203 124.944 27.8203C125.124 27.8203 125.272 27.8047 125.397 27.7891V29.0938C125.202 29.125 124.882 29.1641 124.538 29.1641ZM129.861 29.1641C127.447 29.1641 125.986 27.5156 125.986 24.9219V24.9141C125.986 22.3438 127.47 20.625 129.775 20.625C132.079 20.625 133.493 22.2812 133.493 24.75V25.3203H127.673C127.704 26.875 128.556 27.7812 129.9 27.7812C130.9 27.7812 131.564 27.2656 131.775 26.6484L131.798 26.5859H133.4L133.384 26.6719C133.118 27.9766 131.853 29.1641 129.861 29.1641ZM129.782 22.0078C128.689 22.0078 127.845 22.75 127.697 24.125H131.822C131.681 22.7031 130.884 22.0078 129.782 22.0078ZM139.99 29.1484C138.349 29.1484 137.248 28.1406 137.248 26.6641V26.6484C137.248 25.2188 138.357 24.3438 140.302 24.2266L142.537 24.0938V23.4766C142.537 22.5703 141.951 22.0234 140.904 22.0234C139.927 22.0234 139.326 22.4844 139.185 23.1406L139.17 23.2109H137.576L137.584 23.125C137.701 21.7109 138.927 20.625 140.951 20.625C142.959 20.625 144.232 21.6875 144.232 23.3359V29H142.537V27.7031H142.506C142.029 28.5859 141.076 29.1484 139.99 29.1484ZM138.951 26.625C138.951 27.3438 139.545 27.7969 140.451 27.7969C141.638 27.7969 142.537 26.9922 142.537 25.9219V25.2812L140.529 25.4062C139.513 25.4688 138.951 25.9141 138.951 26.6094V26.625ZM145.633 29V20.7812H147.32V22.0234H147.359C147.789 21.1875 148.633 20.625 149.875 20.625C151.68 20.625 152.719 21.7891 152.719 23.6797V29H151.023V24C151.023 22.7656 150.445 22.0703 149.273 22.0703C148.086 22.0703 147.32 22.9297 147.32 24.2109V29H145.633ZM159.536 29.1484C157.895 29.1484 156.793 28.1406 156.793 26.6641V26.6484C156.793 25.2188 157.903 24.3438 159.848 24.2266L162.082 24.0938V23.4766C162.082 22.5703 161.497 22.0234 160.45 22.0234C159.473 22.0234 158.872 22.4844 158.731 23.1406L158.715 23.2109H157.122L157.129 23.125C157.247 21.7109 158.473 20.625 160.497 20.625C162.504 20.625 163.778 21.6875 163.778 23.3359V29H162.082V27.7031H162.051C161.575 28.5859 160.622 29.1484 159.536 29.1484ZM158.497 26.625C158.497 27.3438 159.09 27.7969 159.997 27.7969C161.184 27.7969 162.082 26.9922 162.082 25.9219V25.2812L160.075 25.4062C159.059 25.4688 158.497 25.9141 158.497 26.6094V26.625ZM168.71 29.1641C166.311 29.1641 164.811 27.5156 164.811 24.8828V24.875C164.811 22.2734 166.342 20.625 168.686 20.625C170.803 20.625 172.085 21.9844 172.225 23.5312L172.233 23.5859H170.624L170.608 23.5234C170.428 22.7188 169.803 22.0391 168.702 22.0391C167.389 22.0391 166.538 23.1328 166.538 24.8906V24.8984C166.538 26.6953 167.405 27.75 168.71 27.75C169.749 27.75 170.413 27.1484 170.616 26.2578L170.624 26.1953H172.249L172.241 26.25C172.061 27.8984 170.686 29.1641 168.71 29.1641ZM176.735 29.1641C174.337 29.1641 172.837 27.5156 172.837 24.8828V24.875C172.837 22.2734 174.368 20.625 176.712 20.625C178.829 20.625 180.11 21.9844 180.251 23.5312L180.259 23.5859H178.649L178.634 23.5234C178.454 22.7188 177.829 22.0391 176.728 22.0391C175.415 22.0391 174.563 23.1328 174.563 24.8906V24.8984C174.563 26.6953 175.431 27.75 176.735 27.75C177.774 27.75 178.438 27.1484 178.642 26.2578L178.649 26.1953H180.274L180.267 26.25C180.087 27.8984 178.712 29.1641 176.735 29.1641ZM184.761 29.1641C182.402 29.1641 180.862 27.5312 180.862 24.8906V24.875C180.862 22.25 182.417 20.625 184.753 20.625C187.097 20.625 188.659 22.2422 188.659 24.875V24.8906C188.659 27.5391 187.112 29.1641 184.761 29.1641ZM184.769 27.75C186.089 27.75 186.933 26.7031 186.933 24.8906V24.875C186.933 23.0781 186.073 22.0391 184.753 22.0391C183.456 22.0391 182.589 23.0781 182.589 24.875V24.8906C182.589 26.7109 183.448 27.75 184.769 27.75ZM192.521 29.1641C190.716 29.1641 189.685 28 189.685 26.1094V20.7812H191.372V25.7812C191.372 27.0234 191.951 27.7109 193.122 27.7109C194.31 27.7109 195.076 26.8594 195.076 25.5781V20.7812H196.771V29H195.076V27.7656H195.037C194.607 28.5938 193.771 29.1641 192.521 29.1641ZM198.203 29V20.7812H199.89V22.0234H199.929C200.359 21.1875 201.203 20.625 202.445 20.625C204.25 20.625 205.289 21.7891 205.289 23.6797V29H203.593V24C203.593 22.7656 203.015 22.0703 201.843 22.0703C200.656 22.0703 199.89 22.9297 199.89 24.2109V29H198.203ZM209.564 29.1641C207.939 29.1641 207.158 28.4766 207.158 26.8359V22.125H205.978V20.7812H207.158V18.6406H208.885V20.7812H210.424V22.125H208.885V26.7344C208.885 27.5703 209.26 27.8203 209.971 27.8203C210.15 27.8203 210.299 27.8047 210.424 27.7891V29.0938C210.228 29.125 209.908 29.1641 209.564 29.1641Z" fill="white"/>
</svg>
