<svg width="29" height="17" viewBox="0 0 29 17" fill="none" xmlns="http://www.w3.org/2000/svg">
<path d="M11.0543 14.7187L7.27928 3.82819L1.37115 3.61705C1.32912 3.49597 5.57348 18.5501 11.0543 14.7187Z" fill="white"/>
<path d="M1.99023 5.63226L4.21204 5.39573C4.63642 5.35055 5.01655 5.66884 5.06608 6.11082C5.11509 6.54822 4.82226 6.94772 4.40474 7.01308L2.55502 7.30261L1.99023 5.63226Z" fill="#4756FF"/>
<ellipse cx="0.185351" cy="0.189977" rx="0.185351" ry="0.189977" transform="matrix(0.854724 0.519082 -0.482021 0.87616 4.24268 5.84625)" fill="white"/>
<path d="M4.7373 11.0547C4.7373 11.0547 9.38514 23.7244 17.5017 0L28.8112 1.55728C28.8112 1.55728 8.74469 24.7818 4.7373 11.0547Z" fill="#E6E8E8"/>
</svg>
