<svg width="78" height="206" viewBox="0 0 78 206" fill="none" xmlns="http://www.w3.org/2000/svg">
<g filter="url(#filter0_d_1097_36309)">
<path d="M21 25C21 18.3726 26.3726 13 33 13H44C50.6274 13 56 18.3726 56 25V162.21C56 168.837 50.6274 174.21 44 174.21H33C26.3726 174.21 21 168.837 21 162.21V25Z" fill="url(#paint0_linear_1097_36309)"/>
</g>
<g clip-path="url(#clip0_1097_36309)">
<path d="M29 33.668C29 34.2422 29.4805 34.7109 30.043 34.7109H37.625V42.293C37.625 42.8555 38.0938 43.3359 38.668 43.3359C39.2422 43.3359 39.7227 42.8555 39.7227 42.293V34.7109H47.293C47.8555 34.7109 48.3359 34.2422 48.3359 33.668C48.3359 33.0938 47.8555 32.6133 47.293 32.6133H39.7227V25.043C39.7227 24.4805 39.2422 24 38.668 24C38.0938 24 37.625 24.4805 37.625 25.043V32.6133H30.043C29.4805 32.6133 29 33.0938 29 33.668Z" fill="white"/>
</g>
<path d="M43.1343 126.318C43.1295 126.822 43.0553 127.269 42.9115 127.66C42.7585 128.041 42.5083 128.347 42.1607 128.577C41.804 128.798 41.3128 128.919 40.6872 128.941L35.8133 129.118L35.8241 127.984L40.446 127.805C40.885 127.781 41.217 127.705 41.4423 127.576C41.6582 127.447 41.8046 127.267 41.8815 127.034C41.9491 126.792 41.9845 126.503 41.9877 126.167C41.9896 125.971 42.0469 125.832 42.1597 125.749C42.2633 125.656 42.3897 125.611 42.5391 125.612C42.6884 125.614 42.8278 125.681 42.9572 125.812C43.0772 125.944 43.1363 126.113 43.1343 126.318ZM41.5742 128.417C41.7372 128.951 41.8162 129.47 41.8114 129.974C41.8066 130.478 41.7276 130.934 41.5743 131.343C41.4211 131.753 41.2033 132.077 40.921 132.317C40.6293 132.557 40.2829 132.675 39.8816 132.671C39.4896 132.668 39.1219 132.566 38.7784 132.367C38.4351 132.158 38.1297 131.88 37.8623 131.532C37.5951 131.175 37.375 130.767 37.202 130.308C37.0198 129.839 36.8985 129.343 36.8382 128.82L38.016 128.635C38.0302 129.102 38.0916 129.518 38.2001 129.883C38.2994 130.239 38.4318 130.543 38.5974 130.797C38.7631 131.041 38.9433 131.23 39.138 131.362C39.3328 131.495 39.5235 131.562 39.7101 131.564C39.9154 131.566 40.0842 131.493 40.2162 131.345C40.3483 131.196 40.4528 131.006 40.5297 130.773C40.5973 130.541 40.6417 130.285 40.663 130.005C40.6751 129.725 40.6683 129.454 40.6428 129.192C40.608 128.931 40.5588 128.706 40.4952 128.519L41.5742 128.417ZM34.2078 128.641C34.2059 128.837 34.139 129.004 34.007 129.143C33.8657 129.272 33.7018 129.336 33.5151 129.334C33.3285 129.333 33.1658 129.266 33.027 129.134C32.8884 128.992 32.82 128.824 32.8218 128.628C32.8236 128.441 32.8951 128.283 33.0364 128.154C33.1777 128.015 33.3417 127.947 33.5283 127.949C33.715 127.95 33.8777 128.022 34.0163 128.163C34.1457 128.295 34.2095 128.454 34.2078 128.641ZM34.1895 130.559C34.1876 130.755 34.1207 130.922 33.9887 131.061C33.8474 131.19 33.6835 131.254 33.4968 131.252C33.3102 131.251 33.1475 131.184 33.0087 131.052C32.87 130.91 32.8017 130.742 32.8035 130.546C32.8053 130.359 32.8768 130.201 33.0181 130.072C33.1594 129.933 33.3234 129.865 33.51 129.866C33.6967 129.868 33.8594 129.94 33.998 130.081C34.1274 130.213 34.1912 130.372 34.1895 130.559ZM43.1344 126.314L41.9878 126.163C41.99 125.929 41.9925 125.673 41.9951 125.393C41.9886 125.103 41.982 124.814 41.9754 124.524C41.9689 124.226 41.9529 123.95 41.9273 123.698C41.8924 123.446 41.8477 123.235 41.7933 123.067C41.6752 122.729 41.5284 122.467 41.3528 122.278C41.1679 122.09 40.9265 121.957 40.6286 121.879C40.3214 121.792 39.9298 121.747 39.4539 121.742C39.0619 121.738 38.6974 121.786 38.3604 121.886C38.0235 121.985 37.7514 122.127 37.5443 122.312C37.3372 122.497 37.2324 122.72 37.2299 122.981C37.2279 123.196 37.31 123.392 37.4763 123.571C37.6334 123.741 37.8374 123.878 38.0884 123.983C38.3395 124.079 38.591 124.128 38.843 124.13C39.039 124.132 39.2074 124.097 39.3481 124.023C39.4889 123.941 39.6022 123.806 39.6879 123.621C39.7644 123.435 39.804 123.192 39.8069 122.894C39.8095 122.623 39.784 122.352 39.7306 122.081C39.6773 121.8 39.6049 121.562 39.5135 121.365L40.4939 121.318C40.5952 121.468 40.6776 121.637 40.7411 121.824C40.8047 122.012 40.8495 122.208 40.8755 122.414C40.9015 122.619 40.9136 122.825 40.9116 123.03C40.9071 123.506 40.8285 123.911 40.676 124.246C40.5142 124.571 40.3018 124.821 40.0388 124.996C39.7666 125.161 39.4578 125.242 39.1125 125.239C38.7578 125.236 38.4037 125.176 38.0501 125.061C37.6872 124.945 37.3574 124.784 37.0607 124.575C36.764 124.367 36.5284 124.118 36.3538 123.827C36.1699 123.536 36.0797 123.213 36.083 122.858C36.0879 122.354 36.2551 121.94 36.5849 121.617C36.9148 121.284 37.3465 121.041 37.8799 120.887C38.4042 120.724 38.9603 120.645 39.5483 120.651C40.2482 120.658 40.8491 120.785 41.3507 121.032C41.8431 121.27 42.25 121.666 42.5714 122.22C42.6907 122.436 42.7909 122.698 42.8719 123.007C42.9438 123.306 43.0013 123.638 43.0444 124.003C43.0877 124.358 43.1122 124.731 43.1177 125.123C43.1327 125.515 43.1382 125.912 43.1344 126.314ZM34.6479 122.13C34.6461 122.326 34.5791 122.494 34.4471 122.632C34.3059 122.762 34.1419 122.826 33.9553 122.824C33.7686 122.822 33.6059 122.755 33.4672 122.623C33.3285 122.482 33.2601 122.313 33.262 122.117C33.2638 121.93 33.3353 121.772 33.4765 121.643C33.6179 121.504 33.7819 121.436 33.9685 121.438C34.1552 121.44 34.3178 121.511 34.4565 121.652C34.5859 121.784 34.6497 121.944 34.6479 122.13ZM34.6296 124.048C34.6278 124.244 34.5608 124.412 34.4288 124.55C34.2876 124.68 34.1236 124.743 33.937 124.742C33.7503 124.74 33.5876 124.673 33.4489 124.541C33.3102 124.4 33.2418 124.231 33.2437 124.035C33.2455 123.848 33.317 123.69 33.4582 123.561C33.5995 123.422 33.7635 123.354 33.9502 123.356C34.1369 123.358 34.2995 123.429 34.4382 123.57C34.5676 123.702 34.6314 123.862 34.6296 124.048ZM43.233 115.978C43.2259 116.725 43.1364 117.298 42.9646 117.698C42.7929 118.088 42.529 118.356 42.1729 118.502C41.8168 118.648 41.3587 118.728 40.7986 118.741L33.1382 118.948L33.1492 117.8L40.3615 117.589C40.819 117.575 41.1741 117.536 41.4267 117.473C41.6701 117.401 41.8396 117.244 41.9352 117.002C42.0309 116.751 42.0814 116.359 42.0864 115.827C42.0883 115.631 42.1456 115.492 42.2584 115.409C42.362 115.317 42.4884 115.271 42.6377 115.273C42.7871 115.274 42.9264 115.341 43.0559 115.473C43.1759 115.604 43.235 115.773 43.233 115.978ZM43.3279 106.039C43.3256 106.281 43.2993 106.589 43.2491 106.962C43.1896 107.325 43.0927 107.698 42.9584 108.079C42.8242 108.451 42.6392 108.767 42.4034 109.026L41.8403 107.872C41.9741 107.547 42.066 107.212 42.116 106.867C42.1567 106.513 42.1785 106.186 42.1813 105.888C42.1832 105.692 42.2405 105.552 42.3533 105.469C42.4569 105.377 42.5833 105.331 42.7326 105.333C42.882 105.334 43.0213 105.401 43.1507 105.533C43.2708 105.665 43.3299 105.833 43.3279 106.039ZM43.233 115.978L42.0864 115.827L42.1144 112.901C42.1221 112.089 42.0961 111.389 42.0364 110.8C41.9674 110.202 41.8648 109.711 41.7285 109.327C41.5921 108.943 41.4175 108.657 41.2046 108.468C40.9824 108.28 40.722 108.184 40.4233 108.181C40.2647 108.179 40.0915 108.229 39.9039 108.33C39.7163 108.431 39.5561 108.588 39.4234 108.801C39.2813 109.015 39.2086 109.299 39.2052 109.653C39.2009 110.101 39.3133 110.55 39.5424 111.001C39.7715 111.441 40.0615 111.864 40.4123 112.269C40.7539 112.664 41.1052 113.018 41.4662 113.329C41.8273 113.641 42.1422 113.891 42.4111 114.08L42.3575 115.298C41.875 114.994 41.3838 114.635 40.8837 114.22C40.3744 113.795 39.9075 113.333 39.4829 112.834C39.049 112.326 38.7041 111.795 38.448 111.242C38.1826 110.689 38.0526 110.128 38.0581 109.558C38.063 109.045 38.1745 108.607 38.3926 108.246C38.6015 107.874 38.8842 107.592 39.2407 107.4C39.5973 107.198 39.9996 107.099 40.4476 107.103C40.8863 107.107 41.3281 107.27 41.773 107.592C42.2086 107.913 42.5487 108.463 42.7933 109.24C42.9203 109.633 43.0186 110.082 43.0885 110.586C43.1583 111.091 43.2042 111.666 43.2261 112.31C43.2479 112.954 43.2549 113.687 43.2471 114.508L43.233 115.978ZM41.8598 114.635L33.1775 114.832L33.1883 113.698L40.8907 113.492L41.8598 114.635ZM43.3279 106.039L42.1813 105.888C42.185 105.496 42.1553 105.188 42.0921 104.963C42.0196 104.739 41.8859 104.569 41.691 104.455C41.4868 104.332 41.1938 104.227 40.8119 104.139C40.4301 104.051 39.9318 103.944 39.3169 103.817L39.5374 102.727C39.705 102.766 39.8912 102.809 40.0961 102.858C40.301 102.907 40.5059 102.951 40.7109 102.99C40.9066 103.02 41.0791 103.035 41.2285 103.037C41.4151 103.039 41.5835 102.998 41.7336 102.916C41.8838 102.833 42.0022 102.652 42.0888 102.373C42.1755 102.094 42.2216 101.665 42.2271 101.086C42.229 100.89 42.2863 100.751 42.3991 100.668C42.5027 100.576 42.6291 100.53 42.7785 100.532C42.9278 100.533 43.0671 100.6 43.1966 100.732C43.3166 100.863 43.3757 101.032 43.3737 101.237C43.368 101.844 43.3121 102.319 43.2061 102.664C43.0908 103.008 42.9251 103.258 42.7089 103.415C42.4834 103.572 42.2117 103.676 41.8939 103.729L41.9259 103.31C42.2231 103.462 42.4642 103.627 42.6492 103.806C42.8342 103.976 42.9771 104.164 43.0778 104.371C43.1785 104.577 43.2463 104.816 43.281 105.087C43.3157 105.358 43.3314 105.675 43.3279 106.039ZM45.9545 103.684C45.9526 103.88 45.881 104.047 45.7397 104.186C45.6078 104.315 45.4485 104.379 45.2619 104.377C45.0752 104.376 44.9125 104.309 44.7738 104.177C44.6351 104.035 44.5667 103.867 44.5686 103.671C44.5704 103.484 44.6419 103.326 44.7831 103.197C44.9244 103.058 45.0884 102.99 45.2751 102.992C45.4617 102.993 45.6197 103.065 45.7491 103.206C45.8878 103.338 45.9563 103.497 45.9545 103.684ZM43.3737 101.24L42.227 101.104C42.232 100.572 42.1843 100.198 42.0837 99.9821C41.9831 99.7665 41.8022 99.6434 41.5412 99.6129C41.2802 99.5731 40.9163 99.5603 40.4495 99.5745L33.3213 99.7724L33.3321 98.6385L40.3344 98.4253C40.8293 98.4114 41.2677 98.4342 41.6498 98.4939C42.0321 98.5442 42.3529 98.6686 42.6123 98.8671C42.8719 99.0562 43.0651 99.3428 43.1922 99.7267C43.3193 100.101 43.3798 100.606 43.3737 101.24ZM43.3507 96.3153L33.3525 96.4999L33.3633 95.3659L43.3615 95.1813L43.3507 96.3153ZM48.9091 90.4394C48.1886 90.6285 47.4823 90.7898 46.7903 90.9232C46.1077 91.0567 45.4954 91.1582 44.9534 91.2277C44.4113 91.2972 44.0097 91.3307 43.7483 91.3282C43.0577 91.3216 42.4288 91.2036 41.8616 90.9742C41.2945 90.7447 40.7979 90.4507 40.372 90.0919C39.9367 89.7331 39.5717 89.3469 39.277 88.9334C38.9729 88.5198 38.7481 88.121 38.6024 87.7369C38.4475 87.3434 38.3713 87.0113 38.3739 86.7407C38.3761 86.5074 38.4294 86.3025 38.5338 86.1262C38.6381 85.9498 38.8404 85.7791 39.1407 85.614C39.4409 85.4488 39.8813 85.2757 40.4617 85.0945C40.9954 84.9223 41.4029 84.7582 41.6844 84.6022C41.9566 84.4461 42.1449 84.2752 42.2494 84.0896C42.3445 83.9038 42.3932 83.6896 42.3955 83.4469C42.3974 83.2509 42.4547 83.1115 42.5675 83.0285C42.6711 82.9362 42.7975 82.8907 42.9468 82.8922C43.0961 82.8936 43.2355 82.9602 43.3649 83.0922C43.485 83.224 43.5441 83.3925 43.5421 83.5979C43.5386 83.9619 43.4703 84.2739 43.3372 84.534C43.2041 84.7847 43.0247 85.0023 42.7989 85.1868L42.536 84.8623C42.8056 84.9769 43.0282 85.1237 43.2038 85.3027C43.3702 85.4723 43.4944 85.6648 43.5763 85.8803C43.6584 86.0864 43.6983 86.3062 43.696 86.5395C43.6935 86.8101 43.6395 87.0896 43.534 87.378C43.4379 87.6664 43.2952 87.9497 43.1059 88.2279C42.9072 88.506 42.6667 88.7698 42.3843 89.0191C42.102 89.259 41.7826 89.4707 41.4262 89.654L41.4555 89.5142C41.817 89.779 42.212 89.9555 42.6405 90.0436C43.0597 90.1316 43.4326 90.1771 43.7593 90.1802C44.0206 90.1827 44.3522 90.1579 44.7541 90.1057C45.1652 90.0537 45.5999 89.9878 46.058 89.9082C46.5162 89.8192 46.9698 89.7255 47.4187 89.6271C47.8771 89.5195 48.2888 89.4208 48.6536 89.3309L48.9091 90.4394ZM42.5492 86.4165C42.5508 86.2485 42.5194 86.1129 42.455 86.0096C42.3908 85.897 42.2935 85.8214 42.1632 85.7828C42.0329 85.7442 41.8694 85.7567 41.6728 85.8201C41.3358 85.9289 41.0408 86.0288 40.7879 86.1197C40.5257 86.2105 40.3102 86.3018 40.1413 86.3935C39.9631 86.4758 39.8316 86.5633 39.7468 86.6558C39.6619 86.7483 39.6189 86.8459 39.618 86.9486C39.617 87.0512 39.6391 87.1821 39.6842 87.3412C39.7294 87.491 39.7979 87.655 39.8895 87.8332C39.9812 88.0021 40.0963 88.1759 40.2346 88.3545C40.3729 88.5332 40.5346 88.7027 40.7197 88.8632L40.6079 88.8481C41.0391 88.6469 41.4008 88.403 41.6929 88.1164C41.9851 87.8205 42.2026 87.5239 42.3454 87.2266C42.479 86.9199 42.5469 86.6498 42.5492 86.4165ZM43.542 83.6045L42.3954 83.4536C42.3983 83.1549 42.3819 82.9121 42.3464 82.7251C42.3015 82.538 42.1956 82.383 42.0288 82.26C41.8527 82.1277 41.5786 82.0037 41.2063 81.8882C40.8341 81.7726 40.3127 81.637 39.6421 81.4812L39.9461 80.4341C40.1044 80.4729 40.286 80.5167 40.4909 80.5653C40.6865 80.6138 40.8914 80.6578 41.1057 80.6972C41.3107 80.7364 41.5018 80.7569 41.6791 80.7586C41.9124 80.7609 42.0953 80.6739 42.2276 80.4979C42.36 80.3218 42.4284 80.0004 42.4329 79.5338C42.4355 79.2538 42.4144 79.0249 42.3694 78.8471C42.3244 78.6694 42.2138 78.5236 42.0376 78.4099C41.8614 78.2869 41.5778 78.1769 41.1867 78.0798C40.7956 77.9827 40.2599 77.8796 39.5796 77.7705L39.7857 76.7084C39.9534 76.738 40.1584 76.7726 40.4007 76.8122C40.643 76.8519 40.8853 76.8915 41.1276 76.9312C41.3607 76.9614 41.5565 76.9773 41.7152 76.9788C41.8459 76.9801 41.9721 76.9533 42.094 76.8984C42.2066 76.8342 42.2964 76.7137 42.3635 76.537C42.4306 76.3509 42.4659 76.0759 42.4693 75.7119C42.4719 75.4413 42.4415 75.2077 42.378 75.011C42.3146 74.8051 42.1948 74.6499 42.0184 74.5456C41.8422 74.4319 41.5954 74.3735 41.2781 74.3705C40.9234 74.3671 40.4793 74.4469 39.9457 74.6098C39.4029 74.7633 38.8645 74.9402 38.3306 75.1404L37.9214 74.0025C38.2213 73.884 38.563 73.7752 38.9466 73.6762C39.3303 73.5679 39.7092 73.4782 40.0832 73.4071C40.4572 73.336 40.7843 73.3017 41.0642 73.3044C41.4936 73.3085 41.871 73.3681 42.1966 73.4832C42.5222 73.5984 42.7913 73.7596 43.004 73.967C43.2074 74.1743 43.3636 74.4278 43.4728 74.7275C43.5726 75.0271 43.6207 75.3636 43.6171 75.7369C43.613 76.1755 43.5582 76.5344 43.4529 76.8134C43.3475 77.0924 43.1915 77.3056 42.9847 77.4529C42.7687 77.6002 42.4971 77.6956 42.17 77.7392L42.1745 77.2632C42.5741 77.4444 42.8757 77.6339 43.0791 77.8319C43.2826 78.0298 43.4203 78.2738 43.4922 78.5638C43.5547 78.8538 43.5837 79.2367 43.5792 79.7127C43.577 79.946 43.5372 80.1977 43.46 80.4676C43.3828 80.7282 43.236 80.9555 43.0195 81.1494C42.7936 81.3433 42.4612 81.4568 42.0222 81.4899L41.9422 81.0692C42.4166 81.2324 42.7694 81.4317 43.0005 81.6673C43.2224 81.8934 43.3691 82.1655 43.4407 82.4835C43.5124 82.8016 43.5461 83.1752 43.542 83.6045ZM43.5887 71.3799L34.5709 71.5318L34.5817 70.3979L43.5996 70.246L43.5887 71.3799ZM33.7244 72.2098L32.9668 72.3706C32.9131 72.1274 32.8683 71.931 32.8324 71.7813C32.7965 71.6316 32.7561 71.4632 32.7112 71.2761L33.0045 71.3489C32.9276 71.5908 32.7667 71.8226 32.5219 72.0443C32.2772 72.2567 32.0008 72.3614 31.6928 72.3584C31.4129 72.3557 31.1802 72.2882 30.9947 72.1557C30.8001 72.0139 30.6571 71.8352 30.5658 71.6196C30.4747 71.3947 30.4303 71.1563 30.4327 70.9043C30.4336 70.8017 30.444 70.6944 30.4637 70.5826C30.4836 70.4615 30.5126 70.3497 30.5509 70.2474L31.2498 70.3661C31.2303 70.4592 31.2108 70.5477 31.1913 70.6316C31.1718 70.7154 31.1616 70.8086 31.1606 70.9113C31.1586 71.1259 31.2036 71.2944 31.2958 71.4166C31.3787 71.5387 31.4994 71.6005 31.6581 71.6021C31.8541 71.6039 32.0226 71.5449 32.1638 71.4249C32.305 71.2955 32.4184 71.152 32.5039 70.9941C32.5802 70.8268 32.6188 70.6918 32.6198 70.5892L32.6703 71.1637C32.6074 70.9111 32.5443 70.6771 32.481 70.4619C32.4085 70.2372 32.3404 70.0358 32.2767 69.8579L32.9928 69.6407C33.0747 69.8655 33.1608 70.1323 33.2512 70.4412C33.3417 70.7407 33.4275 71.0449 33.5085 71.3537C33.5896 71.6625 33.6615 71.9479 33.7244 72.2098Z" fill="white"/>
<defs>
<filter id="filter0_d_1097_36309" x="-1" y="0" width="79" height="205.21" filterUnits="userSpaceOnUse" color-interpolation-filters="sRGB">
<feFlood flood-opacity="0" result="BackgroundImageFix"/>
<feColorMatrix in="SourceAlpha" type="matrix" values="0 0 0 0 0 0 0 0 0 0 0 0 0 0 0 0 0 0 127 0" result="hardAlpha"/>
<feOffset dy="9"/>
<feGaussianBlur stdDeviation="11"/>
<feColorMatrix type="matrix" values="0 0 0 0 0 0 0 0 0 0 0 0 0 0 0 0 0 0 0.12 0"/>
<feBlend mode="normal" in2="BackgroundImageFix" result="effect1_dropShadow_1097_36309"/>
<feBlend mode="normal" in="SourceGraphic" in2="effect1_dropShadow_1097_36309" result="shape"/>
</filter>
<linearGradient id="paint0_linear_1097_36309" x1="56" y1="6.83609" x2="15.083" y2="8.66698" gradientUnits="userSpaceOnUse">
<stop offset="0.0001" stop-color="#7883FF"/>
<stop offset="1" stop-color="#4756FF"/>
</linearGradient>
<clipPath id="clip0_1097_36309">
<rect width="19.6875" height="19.3477" fill="white" transform="translate(29 24)"/>
</clipPath>
</defs>
</svg>
